<mxfile host="app.diagrams.net" modified="2023-10-21T18:26:24.478Z" agent="Mozilla/5.0 (Windows NT 10.0; Win64; x64) AppleWebKit/537.36 (KHTML, like Gecko) Chrome/116.0.5845.888 YaBrowser/23.9.2.888 Yowser/2.5 Safari/537.36" etag="l4Fzj1m8cfVMExiZKLEi" version="22.0.6" type="device">
  <diagram name="Страница — 1" id="CEnNRx8uT4I1Dh8H0K3l">
    <mxGraphModel dx="2026" dy="1127" grid="0" gridSize="10" guides="1" tooltips="1" connect="1" arrows="1" fold="1" page="1" pageScale="1" pageWidth="1169" pageHeight="827" background="#ffffff" math="0" shadow="1">
      <root>
        <mxCell id="0" />
        <mxCell id="1" parent="0" />
        <mxCell id="Igezp09PnTVJK9evPPA8-1" value="Product" style="shape=table;startSize=30;container=1;collapsible=1;childLayout=tableLayout;fixedRows=1;rowLines=0;fontStyle=1;align=center;resizeLast=1;html=1;shadow=1;movable=1;cloneable=1;deletable=1;enumerate=0;comic=0;backgroundOutline=0;metaEdit=0;fixDash=0;snapToPoint=0;labelBackgroundColor=none;fillColor=#FAE5C7;strokeColor=#0F8B8D;fontColor=#143642;rounded=1;" vertex="1" parent="1">
          <mxGeometry x="633" y="27" width="180" height="330" as="geometry" />
        </mxCell>
        <mxCell id="Igezp09PnTVJK9evPPA8-2" value="" style="shape=tableRow;horizontal=0;startSize=0;swimlaneHead=0;swimlaneBody=0;fillColor=none;collapsible=0;dropTarget=0;points=[[0,0.5],[1,0.5]];portConstraint=eastwest;top=0;left=0;right=0;bottom=1;shadow=1;movable=1;cloneable=1;deletable=1;enumerate=0;comic=0;backgroundOutline=0;metaEdit=0;fixDash=0;snapToPoint=0;labelBackgroundColor=none;strokeColor=#0F8B8D;fontColor=#143642;rounded=1;" vertex="1" parent="Igezp09PnTVJK9evPPA8-1">
          <mxGeometry y="30" width="180" height="30" as="geometry" />
        </mxCell>
        <mxCell id="Igezp09PnTVJK9evPPA8-3" value="PK" style="shape=partialRectangle;connectable=0;fillColor=none;top=0;left=0;bottom=0;right=0;fontStyle=1;overflow=hidden;whiteSpace=wrap;html=1;shadow=1;movable=1;cloneable=1;deletable=1;enumerate=0;comic=0;backgroundOutline=0;metaEdit=0;fixDash=0;snapToPoint=0;labelBackgroundColor=none;strokeColor=#0F8B8D;fontColor=#143642;rounded=1;" vertex="1" parent="Igezp09PnTVJK9evPPA8-2">
          <mxGeometry width="30" height="30" as="geometry">
            <mxRectangle width="30" height="30" as="alternateBounds" />
          </mxGeometry>
        </mxCell>
        <mxCell id="Igezp09PnTVJK9evPPA8-4" value="ID" style="shape=partialRectangle;connectable=0;fillColor=none;top=0;left=0;bottom=0;right=0;align=left;spacingLeft=6;fontStyle=5;overflow=hidden;whiteSpace=wrap;html=1;shadow=1;movable=1;cloneable=1;deletable=1;enumerate=0;comic=0;backgroundOutline=0;metaEdit=0;fixDash=0;snapToPoint=0;labelBackgroundColor=none;strokeColor=#0F8B8D;fontColor=#143642;rounded=1;" vertex="1" parent="Igezp09PnTVJK9evPPA8-2">
          <mxGeometry x="30" width="150" height="30" as="geometry">
            <mxRectangle width="150" height="30" as="alternateBounds" />
          </mxGeometry>
        </mxCell>
        <mxCell id="Igezp09PnTVJK9evPPA8-5" value="" style="shape=tableRow;horizontal=0;startSize=0;swimlaneHead=0;swimlaneBody=0;fillColor=none;collapsible=0;dropTarget=0;points=[[0,0.5],[1,0.5]];portConstraint=eastwest;top=0;left=0;right=0;bottom=0;shadow=1;movable=1;cloneable=1;deletable=1;enumerate=0;comic=0;backgroundOutline=0;metaEdit=0;fixDash=0;snapToPoint=0;labelBackgroundColor=none;strokeColor=#0F8B8D;fontColor=#143642;rounded=1;" vertex="1" parent="Igezp09PnTVJK9evPPA8-1">
          <mxGeometry y="60" width="180" height="30" as="geometry" />
        </mxCell>
        <mxCell id="Igezp09PnTVJK9evPPA8-6" value="" style="shape=partialRectangle;connectable=0;fillColor=none;top=0;left=0;bottom=0;right=0;editable=1;overflow=hidden;whiteSpace=wrap;html=1;shadow=1;movable=1;cloneable=1;deletable=1;enumerate=0;comic=0;backgroundOutline=0;metaEdit=0;fixDash=0;snapToPoint=0;labelBackgroundColor=none;strokeColor=#0F8B8D;fontColor=#143642;rounded=1;" vertex="1" parent="Igezp09PnTVJK9evPPA8-5">
          <mxGeometry width="30" height="30" as="geometry">
            <mxRectangle width="30" height="30" as="alternateBounds" />
          </mxGeometry>
        </mxCell>
        <mxCell id="Igezp09PnTVJK9evPPA8-7" value="Name" style="shape=partialRectangle;connectable=0;fillColor=none;top=0;left=0;bottom=0;right=0;align=left;spacingLeft=6;overflow=hidden;whiteSpace=wrap;html=1;shadow=1;movable=1;cloneable=1;deletable=1;enumerate=0;comic=0;backgroundOutline=0;metaEdit=0;fixDash=0;snapToPoint=0;labelBackgroundColor=none;strokeColor=#0F8B8D;fontColor=#143642;rounded=1;" vertex="1" parent="Igezp09PnTVJK9evPPA8-5">
          <mxGeometry x="30" width="150" height="30" as="geometry">
            <mxRectangle width="150" height="30" as="alternateBounds" />
          </mxGeometry>
        </mxCell>
        <mxCell id="Igezp09PnTVJK9evPPA8-263" value="" style="shape=tableRow;horizontal=0;startSize=0;swimlaneHead=0;swimlaneBody=0;fillColor=none;collapsible=0;dropTarget=0;points=[[0,0.5],[1,0.5]];portConstraint=eastwest;top=0;left=0;right=0;bottom=0;shadow=1;movable=1;cloneable=1;deletable=1;enumerate=0;comic=0;backgroundOutline=0;metaEdit=0;fixDash=0;snapToPoint=0;labelBackgroundColor=none;strokeColor=#0F8B8D;fontColor=#143642;rounded=1;" vertex="1" parent="Igezp09PnTVJK9evPPA8-1">
          <mxGeometry y="90" width="180" height="30" as="geometry" />
        </mxCell>
        <mxCell id="Igezp09PnTVJK9evPPA8-264" value="" style="shape=partialRectangle;connectable=0;fillColor=none;top=0;left=0;bottom=0;right=0;editable=1;overflow=hidden;shadow=1;movable=1;cloneable=1;deletable=1;enumerate=0;comic=0;backgroundOutline=0;metaEdit=0;fixDash=0;snapToPoint=0;labelBackgroundColor=none;strokeColor=#0F8B8D;fontColor=#143642;rounded=1;" vertex="1" parent="Igezp09PnTVJK9evPPA8-263">
          <mxGeometry width="30" height="30" as="geometry">
            <mxRectangle width="30" height="30" as="alternateBounds" />
          </mxGeometry>
        </mxCell>
        <mxCell id="Igezp09PnTVJK9evPPA8-265" value="Vendor_code" style="shape=partialRectangle;connectable=0;fillColor=none;top=0;left=0;bottom=0;right=0;align=left;spacingLeft=6;overflow=hidden;shadow=1;movable=1;cloneable=1;deletable=1;enumerate=0;comic=0;backgroundOutline=0;metaEdit=0;fixDash=0;snapToPoint=0;labelBackgroundColor=none;strokeColor=#0F8B8D;fontColor=#143642;rounded=1;" vertex="1" parent="Igezp09PnTVJK9evPPA8-263">
          <mxGeometry x="30" width="150" height="30" as="geometry">
            <mxRectangle width="150" height="30" as="alternateBounds" />
          </mxGeometry>
        </mxCell>
        <mxCell id="Igezp09PnTVJK9evPPA8-271" value="" style="shape=tableRow;horizontal=0;startSize=0;swimlaneHead=0;swimlaneBody=0;fillColor=none;collapsible=0;dropTarget=0;points=[[0,0.5],[1,0.5]];portConstraint=eastwest;top=0;left=0;right=0;bottom=0;shadow=1;movable=1;cloneable=1;deletable=1;enumerate=0;comic=0;backgroundOutline=0;metaEdit=0;fixDash=0;snapToPoint=0;labelBackgroundColor=none;strokeColor=#0F8B8D;fontColor=#143642;rounded=1;" vertex="1" parent="Igezp09PnTVJK9evPPA8-1">
          <mxGeometry y="120" width="180" height="30" as="geometry" />
        </mxCell>
        <mxCell id="Igezp09PnTVJK9evPPA8-272" value="" style="shape=partialRectangle;connectable=0;fillColor=none;top=0;left=0;bottom=0;right=0;editable=1;overflow=hidden;shadow=1;movable=1;cloneable=1;deletable=1;enumerate=0;comic=0;backgroundOutline=0;metaEdit=0;fixDash=0;snapToPoint=0;labelBackgroundColor=none;strokeColor=#0F8B8D;fontColor=#143642;rounded=1;" vertex="1" parent="Igezp09PnTVJK9evPPA8-271">
          <mxGeometry width="30" height="30" as="geometry">
            <mxRectangle width="30" height="30" as="alternateBounds" />
          </mxGeometry>
        </mxCell>
        <mxCell id="Igezp09PnTVJK9evPPA8-273" value="Brand" style="shape=partialRectangle;connectable=0;fillColor=none;top=0;left=0;bottom=0;right=0;align=left;spacingLeft=6;overflow=hidden;shadow=1;movable=1;cloneable=1;deletable=1;enumerate=0;comic=0;backgroundOutline=0;metaEdit=0;fixDash=0;snapToPoint=0;labelBackgroundColor=none;strokeColor=#0F8B8D;fontColor=#143642;rounded=1;" vertex="1" parent="Igezp09PnTVJK9evPPA8-271">
          <mxGeometry x="30" width="150" height="30" as="geometry">
            <mxRectangle width="150" height="30" as="alternateBounds" />
          </mxGeometry>
        </mxCell>
        <mxCell id="Igezp09PnTVJK9evPPA8-11" value="" style="shape=tableRow;horizontal=0;startSize=0;swimlaneHead=0;swimlaneBody=0;fillColor=none;collapsible=0;dropTarget=0;points=[[0,0.5],[1,0.5]];portConstraint=eastwest;top=0;left=0;right=0;bottom=0;shadow=1;movable=1;cloneable=1;deletable=1;enumerate=0;comic=0;backgroundOutline=0;metaEdit=0;fixDash=0;snapToPoint=0;labelBackgroundColor=none;strokeColor=#0F8B8D;fontColor=#143642;rounded=1;" vertex="1" parent="Igezp09PnTVJK9evPPA8-1">
          <mxGeometry y="150" width="180" height="30" as="geometry" />
        </mxCell>
        <mxCell id="Igezp09PnTVJK9evPPA8-12" value="" style="shape=partialRectangle;connectable=0;fillColor=none;top=0;left=0;bottom=0;right=0;editable=1;overflow=hidden;whiteSpace=wrap;html=1;shadow=1;movable=1;cloneable=1;deletable=1;enumerate=0;comic=0;backgroundOutline=0;metaEdit=0;fixDash=0;snapToPoint=0;labelBackgroundColor=none;strokeColor=#0F8B8D;fontColor=#143642;rounded=1;" vertex="1" parent="Igezp09PnTVJK9evPPA8-11">
          <mxGeometry width="30" height="30" as="geometry">
            <mxRectangle width="30" height="30" as="alternateBounds" />
          </mxGeometry>
        </mxCell>
        <mxCell id="Igezp09PnTVJK9evPPA8-13" value="Description" style="shape=partialRectangle;connectable=0;fillColor=none;top=0;left=0;bottom=0;right=0;align=left;spacingLeft=6;overflow=hidden;whiteSpace=wrap;html=1;shadow=1;movable=1;cloneable=1;deletable=1;enumerate=0;comic=0;backgroundOutline=0;metaEdit=0;fixDash=0;snapToPoint=0;labelBackgroundColor=none;strokeColor=#0F8B8D;fontColor=#143642;rounded=1;" vertex="1" parent="Igezp09PnTVJK9evPPA8-11">
          <mxGeometry x="30" width="150" height="30" as="geometry">
            <mxRectangle width="150" height="30" as="alternateBounds" />
          </mxGeometry>
        </mxCell>
        <mxCell id="Igezp09PnTVJK9evPPA8-134" value="" style="shape=tableRow;horizontal=0;startSize=0;swimlaneHead=0;swimlaneBody=0;fillColor=none;collapsible=0;dropTarget=0;points=[[0,0.5],[1,0.5]];portConstraint=eastwest;top=0;left=0;right=0;bottom=0;shadow=1;movable=1;cloneable=1;deletable=1;enumerate=0;comic=0;backgroundOutline=0;metaEdit=0;fixDash=0;snapToPoint=0;labelBackgroundColor=none;strokeColor=#0F8B8D;fontColor=#143642;rounded=1;" vertex="1" parent="Igezp09PnTVJK9evPPA8-1">
          <mxGeometry y="180" width="180" height="30" as="geometry" />
        </mxCell>
        <mxCell id="Igezp09PnTVJK9evPPA8-135" value="" style="shape=partialRectangle;connectable=0;fillColor=none;top=0;left=0;bottom=0;right=0;editable=1;overflow=hidden;shadow=1;movable=1;cloneable=1;deletable=1;enumerate=0;comic=0;backgroundOutline=0;metaEdit=0;fixDash=0;snapToPoint=0;labelBackgroundColor=none;strokeColor=#0F8B8D;fontColor=#143642;rounded=1;" vertex="1" parent="Igezp09PnTVJK9evPPA8-134">
          <mxGeometry width="30" height="30" as="geometry">
            <mxRectangle width="30" height="30" as="alternateBounds" />
          </mxGeometry>
        </mxCell>
        <mxCell id="Igezp09PnTVJK9evPPA8-136" value="Category_ID" style="shape=partialRectangle;connectable=0;fillColor=none;top=0;left=0;bottom=0;right=0;align=left;spacingLeft=6;overflow=hidden;shadow=1;movable=1;cloneable=1;deletable=1;enumerate=0;comic=0;backgroundOutline=0;metaEdit=0;fixDash=0;snapToPoint=0;labelBackgroundColor=none;strokeColor=#0F8B8D;fontColor=#143642;rounded=1;" vertex="1" parent="Igezp09PnTVJK9evPPA8-134">
          <mxGeometry x="30" width="150" height="30" as="geometry">
            <mxRectangle width="150" height="30" as="alternateBounds" />
          </mxGeometry>
        </mxCell>
        <mxCell id="Igezp09PnTVJK9evPPA8-146" value="" style="shape=tableRow;horizontal=0;startSize=0;swimlaneHead=0;swimlaneBody=0;fillColor=none;collapsible=0;dropTarget=0;points=[[0,0.5],[1,0.5]];portConstraint=eastwest;top=0;left=0;right=0;bottom=0;shadow=1;movable=1;cloneable=1;deletable=1;enumerate=0;comic=0;backgroundOutline=0;metaEdit=0;fixDash=0;snapToPoint=0;labelBackgroundColor=none;strokeColor=#0F8B8D;fontColor=#143642;rounded=1;" vertex="1" parent="Igezp09PnTVJK9evPPA8-1">
          <mxGeometry y="210" width="180" height="30" as="geometry" />
        </mxCell>
        <mxCell id="Igezp09PnTVJK9evPPA8-147" value="" style="shape=partialRectangle;connectable=0;fillColor=none;top=0;left=0;bottom=0;right=0;editable=1;overflow=hidden;shadow=1;movable=1;cloneable=1;deletable=1;enumerate=0;comic=0;backgroundOutline=0;metaEdit=0;fixDash=0;snapToPoint=0;labelBackgroundColor=none;strokeColor=#0F8B8D;fontColor=#143642;rounded=1;" vertex="1" parent="Igezp09PnTVJK9evPPA8-146">
          <mxGeometry width="30" height="30" as="geometry">
            <mxRectangle width="30" height="30" as="alternateBounds" />
          </mxGeometry>
        </mxCell>
        <mxCell id="Igezp09PnTVJK9evPPA8-148" value="Subcategory_ID" style="shape=partialRectangle;connectable=0;fillColor=none;top=0;left=0;bottom=0;right=0;align=left;spacingLeft=6;overflow=hidden;shadow=1;movable=1;cloneable=1;deletable=1;enumerate=0;comic=0;backgroundOutline=0;metaEdit=0;fixDash=0;snapToPoint=0;labelBackgroundColor=none;strokeColor=#0F8B8D;fontColor=#143642;rounded=1;" vertex="1" parent="Igezp09PnTVJK9evPPA8-146">
          <mxGeometry x="30" width="150" height="30" as="geometry">
            <mxRectangle width="150" height="30" as="alternateBounds" />
          </mxGeometry>
        </mxCell>
        <mxCell id="Igezp09PnTVJK9evPPA8-150" value="" style="shape=tableRow;horizontal=0;startSize=0;swimlaneHead=0;swimlaneBody=0;fillColor=none;collapsible=0;dropTarget=0;points=[[0,0.5],[1,0.5]];portConstraint=eastwest;top=0;left=0;right=0;bottom=0;shadow=1;movable=1;cloneable=1;deletable=1;enumerate=0;comic=0;backgroundOutline=0;metaEdit=0;fixDash=0;snapToPoint=0;labelBackgroundColor=none;strokeColor=#0F8B8D;fontColor=#143642;rounded=1;" vertex="1" parent="Igezp09PnTVJK9evPPA8-1">
          <mxGeometry y="240" width="180" height="30" as="geometry" />
        </mxCell>
        <mxCell id="Igezp09PnTVJK9evPPA8-151" value="" style="shape=partialRectangle;connectable=0;fillColor=none;top=0;left=0;bottom=0;right=0;editable=1;overflow=hidden;shadow=1;movable=1;cloneable=1;deletable=1;enumerate=0;comic=0;backgroundOutline=0;metaEdit=0;fixDash=0;snapToPoint=0;labelBackgroundColor=none;strokeColor=#0F8B8D;fontColor=#143642;rounded=1;" vertex="1" parent="Igezp09PnTVJK9evPPA8-150">
          <mxGeometry width="30" height="30" as="geometry">
            <mxRectangle width="30" height="30" as="alternateBounds" />
          </mxGeometry>
        </mxCell>
        <mxCell id="Igezp09PnTVJK9evPPA8-152" value="Type_ID" style="shape=partialRectangle;connectable=0;fillColor=none;top=0;left=0;bottom=0;right=0;align=left;spacingLeft=6;overflow=hidden;shadow=1;movable=1;cloneable=1;deletable=1;enumerate=0;comic=0;backgroundOutline=0;metaEdit=0;fixDash=0;snapToPoint=0;labelBackgroundColor=none;strokeColor=#0F8B8D;fontColor=#143642;rounded=1;" vertex="1" parent="Igezp09PnTVJK9evPPA8-150">
          <mxGeometry x="30" width="150" height="30" as="geometry">
            <mxRectangle width="150" height="30" as="alternateBounds" />
          </mxGeometry>
        </mxCell>
        <mxCell id="Igezp09PnTVJK9evPPA8-127" value="" style="shape=tableRow;horizontal=0;startSize=0;swimlaneHead=0;swimlaneBody=0;fillColor=none;collapsible=0;dropTarget=0;points=[[0,0.5],[1,0.5]];portConstraint=eastwest;top=0;left=0;right=0;bottom=0;shadow=1;movable=1;cloneable=1;deletable=1;enumerate=0;comic=0;backgroundOutline=0;metaEdit=0;fixDash=0;snapToPoint=0;labelBackgroundColor=none;strokeColor=#0F8B8D;fontColor=#143642;rounded=1;" vertex="1" parent="Igezp09PnTVJK9evPPA8-1">
          <mxGeometry y="270" width="180" height="30" as="geometry" />
        </mxCell>
        <mxCell id="Igezp09PnTVJK9evPPA8-128" value="" style="shape=partialRectangle;connectable=0;fillColor=none;top=0;left=0;bottom=0;right=0;editable=1;overflow=hidden;shadow=1;movable=1;cloneable=1;deletable=1;enumerate=0;comic=0;backgroundOutline=0;metaEdit=0;fixDash=0;snapToPoint=0;labelBackgroundColor=none;strokeColor=#0F8B8D;fontColor=#143642;rounded=1;" vertex="1" parent="Igezp09PnTVJK9evPPA8-127">
          <mxGeometry width="30" height="30" as="geometry">
            <mxRectangle width="30" height="30" as="alternateBounds" />
          </mxGeometry>
        </mxCell>
        <mxCell id="Igezp09PnTVJK9evPPA8-129" value="Made_ID" style="shape=partialRectangle;connectable=0;fillColor=none;top=0;left=0;bottom=0;right=0;align=left;spacingLeft=6;overflow=hidden;shadow=1;movable=1;cloneable=1;deletable=1;enumerate=0;comic=0;backgroundOutline=0;metaEdit=0;fixDash=0;snapToPoint=0;labelBackgroundColor=none;strokeColor=#0F8B8D;fontColor=#143642;rounded=1;" vertex="1" parent="Igezp09PnTVJK9evPPA8-127">
          <mxGeometry x="30" width="150" height="30" as="geometry">
            <mxRectangle width="150" height="30" as="alternateBounds" />
          </mxGeometry>
        </mxCell>
        <mxCell id="Igezp09PnTVJK9evPPA8-8" value="" style="shape=tableRow;horizontal=0;startSize=0;swimlaneHead=0;swimlaneBody=0;fillColor=none;collapsible=0;dropTarget=0;points=[[0,0.5],[1,0.5]];portConstraint=eastwest;top=0;left=0;right=0;bottom=0;shadow=1;movable=1;cloneable=1;deletable=1;enumerate=0;comic=0;backgroundOutline=0;metaEdit=0;fixDash=0;snapToPoint=0;labelBackgroundColor=none;strokeColor=#0F8B8D;fontColor=#143642;rounded=1;" vertex="1" parent="Igezp09PnTVJK9evPPA8-1">
          <mxGeometry y="300" width="180" height="30" as="geometry" />
        </mxCell>
        <mxCell id="Igezp09PnTVJK9evPPA8-9" value="" style="shape=partialRectangle;connectable=0;fillColor=none;top=0;left=0;bottom=0;right=0;editable=1;overflow=hidden;whiteSpace=wrap;html=1;shadow=1;movable=1;cloneable=1;deletable=1;enumerate=0;comic=0;backgroundOutline=0;metaEdit=0;fixDash=0;snapToPoint=0;labelBackgroundColor=none;strokeColor=#0F8B8D;fontColor=#143642;rounded=1;" vertex="1" parent="Igezp09PnTVJK9evPPA8-8">
          <mxGeometry width="30" height="30" as="geometry">
            <mxRectangle width="30" height="30" as="alternateBounds" />
          </mxGeometry>
        </mxCell>
        <mxCell id="Igezp09PnTVJK9evPPA8-10" value="Price" style="shape=partialRectangle;connectable=0;fillColor=none;top=0;left=0;bottom=0;right=0;align=left;spacingLeft=6;overflow=hidden;whiteSpace=wrap;html=1;shadow=1;movable=1;cloneable=1;deletable=1;enumerate=0;comic=0;backgroundOutline=0;metaEdit=0;fixDash=0;snapToPoint=0;labelBackgroundColor=none;strokeColor=#0F8B8D;fontColor=#143642;rounded=1;" vertex="1" parent="Igezp09PnTVJK9evPPA8-8">
          <mxGeometry x="30" width="150" height="30" as="geometry">
            <mxRectangle width="150" height="30" as="alternateBounds" />
          </mxGeometry>
        </mxCell>
        <mxCell id="Igezp09PnTVJK9evPPA8-17" value="Provider" style="shape=table;startSize=30;container=1;collapsible=1;childLayout=tableLayout;fixedRows=1;rowLines=0;fontStyle=1;align=center;resizeLast=1;html=1;shadow=1;rounded=1;movable=1;cloneable=1;deletable=1;enumerate=0;comic=0;backgroundOutline=0;metaEdit=0;fixDash=0;snapToPoint=0;labelBackgroundColor=none;fillColor=#FAE5C7;strokeColor=#0F8B8D;fontColor=#143642;" vertex="1" parent="1">
          <mxGeometry x="123" y="87" width="180" height="180" as="geometry" />
        </mxCell>
        <mxCell id="Igezp09PnTVJK9evPPA8-18" value="" style="shape=tableRow;horizontal=0;startSize=0;swimlaneHead=0;swimlaneBody=0;fillColor=none;collapsible=0;dropTarget=0;points=[[0,0.5],[1,0.5]];portConstraint=eastwest;top=0;left=0;right=0;bottom=1;shadow=1;movable=1;cloneable=1;deletable=1;enumerate=0;comic=0;backgroundOutline=0;metaEdit=0;fixDash=0;snapToPoint=0;labelBackgroundColor=none;strokeColor=#0F8B8D;fontColor=#143642;rounded=1;" vertex="1" parent="Igezp09PnTVJK9evPPA8-17">
          <mxGeometry y="30" width="180" height="30" as="geometry" />
        </mxCell>
        <mxCell id="Igezp09PnTVJK9evPPA8-19" value="PK" style="shape=partialRectangle;connectable=0;fillColor=none;top=0;left=0;bottom=0;right=0;fontStyle=1;overflow=hidden;whiteSpace=wrap;html=1;shadow=1;movable=1;cloneable=1;deletable=1;enumerate=0;comic=0;backgroundOutline=0;metaEdit=0;fixDash=0;snapToPoint=0;labelBackgroundColor=none;strokeColor=#0F8B8D;fontColor=#143642;rounded=1;" vertex="1" parent="Igezp09PnTVJK9evPPA8-18">
          <mxGeometry width="30" height="30" as="geometry">
            <mxRectangle width="30" height="30" as="alternateBounds" />
          </mxGeometry>
        </mxCell>
        <mxCell id="Igezp09PnTVJK9evPPA8-20" value="ID" style="shape=partialRectangle;connectable=0;fillColor=none;top=0;left=0;bottom=0;right=0;align=left;spacingLeft=6;fontStyle=5;overflow=hidden;whiteSpace=wrap;html=1;shadow=1;movable=1;cloneable=1;deletable=1;enumerate=0;comic=0;backgroundOutline=0;metaEdit=0;fixDash=0;snapToPoint=0;labelBackgroundColor=none;strokeColor=#0F8B8D;fontColor=#143642;rounded=1;" vertex="1" parent="Igezp09PnTVJK9evPPA8-18">
          <mxGeometry x="30" width="150" height="30" as="geometry">
            <mxRectangle width="150" height="30" as="alternateBounds" />
          </mxGeometry>
        </mxCell>
        <mxCell id="Igezp09PnTVJK9evPPA8-21" value="" style="shape=tableRow;horizontal=0;startSize=0;swimlaneHead=0;swimlaneBody=0;fillColor=none;collapsible=0;dropTarget=0;points=[[0,0.5],[1,0.5]];portConstraint=eastwest;top=0;left=0;right=0;bottom=0;shadow=1;movable=1;cloneable=1;deletable=1;enumerate=0;comic=0;backgroundOutline=0;metaEdit=0;fixDash=0;snapToPoint=0;labelBackgroundColor=none;strokeColor=#0F8B8D;fontColor=#143642;rounded=1;" vertex="1" parent="Igezp09PnTVJK9evPPA8-17">
          <mxGeometry y="60" width="180" height="30" as="geometry" />
        </mxCell>
        <mxCell id="Igezp09PnTVJK9evPPA8-22" value="" style="shape=partialRectangle;connectable=0;fillColor=none;top=0;left=0;bottom=0;right=0;editable=1;overflow=hidden;whiteSpace=wrap;html=1;shadow=1;movable=1;cloneable=1;deletable=1;enumerate=0;comic=0;backgroundOutline=0;metaEdit=0;fixDash=0;snapToPoint=0;labelBackgroundColor=none;strokeColor=#0F8B8D;fontColor=#143642;rounded=1;" vertex="1" parent="Igezp09PnTVJK9evPPA8-21">
          <mxGeometry width="30" height="30" as="geometry">
            <mxRectangle width="30" height="30" as="alternateBounds" />
          </mxGeometry>
        </mxCell>
        <mxCell id="Igezp09PnTVJK9evPPA8-23" value="Name" style="shape=partialRectangle;connectable=0;fillColor=none;top=0;left=0;bottom=0;right=0;align=left;spacingLeft=6;overflow=hidden;whiteSpace=wrap;html=1;shadow=1;movable=1;cloneable=1;deletable=1;enumerate=0;comic=0;backgroundOutline=0;metaEdit=0;fixDash=0;snapToPoint=0;labelBackgroundColor=none;strokeColor=#0F8B8D;fontColor=#143642;rounded=1;" vertex="1" parent="Igezp09PnTVJK9evPPA8-21">
          <mxGeometry x="30" width="150" height="30" as="geometry">
            <mxRectangle width="150" height="30" as="alternateBounds" />
          </mxGeometry>
        </mxCell>
        <mxCell id="Igezp09PnTVJK9evPPA8-24" value="" style="shape=tableRow;horizontal=0;startSize=0;swimlaneHead=0;swimlaneBody=0;fillColor=none;collapsible=0;dropTarget=0;points=[[0,0.5],[1,0.5]];portConstraint=eastwest;top=0;left=0;right=0;bottom=0;shadow=1;movable=1;cloneable=1;deletable=1;enumerate=0;comic=0;backgroundOutline=0;metaEdit=0;fixDash=0;snapToPoint=0;labelBackgroundColor=none;strokeColor=#0F8B8D;fontColor=#143642;rounded=1;" vertex="1" parent="Igezp09PnTVJK9evPPA8-17">
          <mxGeometry y="90" width="180" height="30" as="geometry" />
        </mxCell>
        <mxCell id="Igezp09PnTVJK9evPPA8-25" value="" style="shape=partialRectangle;connectable=0;fillColor=none;top=0;left=0;bottom=0;right=0;editable=1;overflow=hidden;whiteSpace=wrap;html=1;shadow=1;movable=1;cloneable=1;deletable=1;enumerate=0;comic=0;backgroundOutline=0;metaEdit=0;fixDash=0;snapToPoint=0;labelBackgroundColor=none;strokeColor=#0F8B8D;fontColor=#143642;rounded=1;" vertex="1" parent="Igezp09PnTVJK9evPPA8-24">
          <mxGeometry width="30" height="30" as="geometry">
            <mxRectangle width="30" height="30" as="alternateBounds" />
          </mxGeometry>
        </mxCell>
        <mxCell id="Igezp09PnTVJK9evPPA8-26" value="Contact_information" style="shape=partialRectangle;connectable=0;fillColor=none;top=0;left=0;bottom=0;right=0;align=left;spacingLeft=6;overflow=hidden;whiteSpace=wrap;html=1;shadow=1;movable=1;cloneable=1;deletable=1;enumerate=0;comic=0;backgroundOutline=0;metaEdit=0;fixDash=0;snapToPoint=0;labelBackgroundColor=none;strokeColor=#0F8B8D;fontColor=#143642;rounded=1;" vertex="1" parent="Igezp09PnTVJK9evPPA8-24">
          <mxGeometry x="30" width="150" height="30" as="geometry">
            <mxRectangle width="150" height="30" as="alternateBounds" />
          </mxGeometry>
        </mxCell>
        <mxCell id="Igezp09PnTVJK9evPPA8-223" value="" style="shape=tableRow;horizontal=0;startSize=0;swimlaneHead=0;swimlaneBody=0;fillColor=none;collapsible=0;dropTarget=0;points=[[0,0.5],[1,0.5]];portConstraint=eastwest;top=0;left=0;right=0;bottom=0;shadow=1;movable=1;cloneable=1;deletable=1;enumerate=0;comic=0;backgroundOutline=0;metaEdit=0;fixDash=0;snapToPoint=0;labelBackgroundColor=none;strokeColor=#0F8B8D;fontColor=#143642;rounded=1;" vertex="1" parent="Igezp09PnTVJK9evPPA8-17">
          <mxGeometry y="120" width="180" height="30" as="geometry" />
        </mxCell>
        <mxCell id="Igezp09PnTVJK9evPPA8-224" value="" style="shape=partialRectangle;connectable=0;fillColor=none;top=0;left=0;bottom=0;right=0;editable=1;overflow=hidden;shadow=1;movable=1;cloneable=1;deletable=1;enumerate=0;comic=0;backgroundOutline=0;metaEdit=0;fixDash=0;snapToPoint=0;labelBackgroundColor=none;strokeColor=#0F8B8D;fontColor=#143642;rounded=1;" vertex="1" parent="Igezp09PnTVJK9evPPA8-223">
          <mxGeometry width="30" height="30" as="geometry">
            <mxRectangle width="30" height="30" as="alternateBounds" />
          </mxGeometry>
        </mxCell>
        <mxCell id="Igezp09PnTVJK9evPPA8-225" value="Reputation" style="shape=partialRectangle;connectable=0;fillColor=none;top=0;left=0;bottom=0;right=0;align=left;spacingLeft=6;overflow=hidden;shadow=1;movable=1;cloneable=1;deletable=1;enumerate=0;comic=0;backgroundOutline=0;metaEdit=0;fixDash=0;snapToPoint=0;labelBackgroundColor=none;strokeColor=#0F8B8D;fontColor=#143642;rounded=1;" vertex="1" parent="Igezp09PnTVJK9evPPA8-223">
          <mxGeometry x="30" width="150" height="30" as="geometry">
            <mxRectangle width="150" height="30" as="alternateBounds" />
          </mxGeometry>
        </mxCell>
        <mxCell id="Igezp09PnTVJK9evPPA8-227" value="" style="shape=tableRow;horizontal=0;startSize=0;swimlaneHead=0;swimlaneBody=0;fillColor=none;collapsible=0;dropTarget=0;points=[[0,0.5],[1,0.5]];portConstraint=eastwest;top=0;left=0;right=0;bottom=0;shadow=1;movable=1;cloneable=1;deletable=1;enumerate=0;comic=0;backgroundOutline=0;metaEdit=0;fixDash=0;snapToPoint=0;labelBackgroundColor=none;strokeColor=#0F8B8D;fontColor=#143642;rounded=1;" vertex="1" parent="Igezp09PnTVJK9evPPA8-17">
          <mxGeometry y="150" width="180" height="30" as="geometry" />
        </mxCell>
        <mxCell id="Igezp09PnTVJK9evPPA8-228" value="" style="shape=partialRectangle;connectable=0;fillColor=none;top=0;left=0;bottom=0;right=0;editable=1;overflow=hidden;shadow=1;movable=1;cloneable=1;deletable=1;enumerate=0;comic=0;backgroundOutline=0;metaEdit=0;fixDash=0;snapToPoint=0;labelBackgroundColor=none;strokeColor=#0F8B8D;fontColor=#143642;rounded=1;" vertex="1" parent="Igezp09PnTVJK9evPPA8-227">
          <mxGeometry width="30" height="30" as="geometry">
            <mxRectangle width="30" height="30" as="alternateBounds" />
          </mxGeometry>
        </mxCell>
        <mxCell id="Igezp09PnTVJK9evPPA8-229" value="Service_level" style="shape=partialRectangle;connectable=0;fillColor=none;top=0;left=0;bottom=0;right=0;align=left;spacingLeft=6;overflow=hidden;shadow=1;movable=1;cloneable=1;deletable=1;enumerate=0;comic=0;backgroundOutline=0;metaEdit=0;fixDash=0;snapToPoint=0;labelBackgroundColor=none;strokeColor=#0F8B8D;fontColor=#143642;rounded=1;" vertex="1" parent="Igezp09PnTVJK9evPPA8-227">
          <mxGeometry x="30" width="150" height="30" as="geometry">
            <mxRectangle width="150" height="30" as="alternateBounds" />
          </mxGeometry>
        </mxCell>
        <mxCell id="Igezp09PnTVJK9evPPA8-30" value="Order" style="shape=table;startSize=30;container=1;collapsible=1;childLayout=tableLayout;fixedRows=1;rowLines=0;fontStyle=1;align=center;resizeLast=1;html=1;shadow=1;movable=1;cloneable=1;deletable=1;enumerate=0;comic=0;backgroundOutline=0;metaEdit=0;fixDash=0;snapToPoint=0;labelBackgroundColor=none;fillColor=#FAE5C7;strokeColor=#0F8B8D;fontColor=#143642;rounded=1;" vertex="1" parent="1">
          <mxGeometry x="368" y="58" width="180" height="240" as="geometry" />
        </mxCell>
        <mxCell id="Igezp09PnTVJK9evPPA8-31" value="" style="shape=tableRow;horizontal=0;startSize=0;swimlaneHead=0;swimlaneBody=0;fillColor=none;collapsible=0;dropTarget=0;points=[[0,0.5],[1,0.5]];portConstraint=eastwest;top=0;left=0;right=0;bottom=1;shadow=1;movable=1;cloneable=1;deletable=1;enumerate=0;comic=0;backgroundOutline=0;metaEdit=0;fixDash=0;snapToPoint=0;labelBackgroundColor=none;strokeColor=#0F8B8D;fontColor=#143642;rounded=1;" vertex="1" parent="Igezp09PnTVJK9evPPA8-30">
          <mxGeometry y="30" width="180" height="30" as="geometry" />
        </mxCell>
        <mxCell id="Igezp09PnTVJK9evPPA8-32" value="PK" style="shape=partialRectangle;connectable=0;fillColor=none;top=0;left=0;bottom=0;right=0;fontStyle=1;overflow=hidden;whiteSpace=wrap;html=1;shadow=1;movable=1;cloneable=1;deletable=1;enumerate=0;comic=0;backgroundOutline=0;metaEdit=0;fixDash=0;snapToPoint=0;labelBackgroundColor=none;strokeColor=#0F8B8D;fontColor=#143642;rounded=1;" vertex="1" parent="Igezp09PnTVJK9evPPA8-31">
          <mxGeometry width="30" height="30" as="geometry">
            <mxRectangle width="30" height="30" as="alternateBounds" />
          </mxGeometry>
        </mxCell>
        <mxCell id="Igezp09PnTVJK9evPPA8-33" value="ID" style="shape=partialRectangle;connectable=0;fillColor=none;top=0;left=0;bottom=0;right=0;align=left;spacingLeft=6;fontStyle=5;overflow=hidden;whiteSpace=wrap;html=1;shadow=1;movable=1;cloneable=1;deletable=1;enumerate=0;comic=0;backgroundOutline=0;metaEdit=0;fixDash=0;snapToPoint=0;labelBackgroundColor=none;strokeColor=#0F8B8D;fontColor=#143642;rounded=1;" vertex="1" parent="Igezp09PnTVJK9evPPA8-31">
          <mxGeometry x="30" width="150" height="30" as="geometry">
            <mxRectangle width="150" height="30" as="alternateBounds" />
          </mxGeometry>
        </mxCell>
        <mxCell id="Igezp09PnTVJK9evPPA8-34" value="" style="shape=tableRow;horizontal=0;startSize=0;swimlaneHead=0;swimlaneBody=0;fillColor=none;collapsible=0;dropTarget=0;points=[[0,0.5],[1,0.5]];portConstraint=eastwest;top=0;left=0;right=0;bottom=0;shadow=1;movable=1;cloneable=1;deletable=1;enumerate=0;comic=0;backgroundOutline=0;metaEdit=0;fixDash=0;snapToPoint=0;labelBackgroundColor=none;strokeColor=#0F8B8D;fontColor=#143642;rounded=1;" vertex="1" parent="Igezp09PnTVJK9evPPA8-30">
          <mxGeometry y="60" width="180" height="30" as="geometry" />
        </mxCell>
        <mxCell id="Igezp09PnTVJK9evPPA8-35" value="" style="shape=partialRectangle;connectable=0;fillColor=none;top=0;left=0;bottom=0;right=0;editable=1;overflow=hidden;whiteSpace=wrap;html=1;shadow=1;movable=1;cloneable=1;deletable=1;enumerate=0;comic=0;backgroundOutline=0;metaEdit=0;fixDash=0;snapToPoint=0;labelBackgroundColor=none;strokeColor=#0F8B8D;fontColor=#143642;rounded=1;" vertex="1" parent="Igezp09PnTVJK9evPPA8-34">
          <mxGeometry width="30" height="30" as="geometry">
            <mxRectangle width="30" height="30" as="alternateBounds" />
          </mxGeometry>
        </mxCell>
        <mxCell id="Igezp09PnTVJK9evPPA8-36" value="Provider_ID" style="shape=partialRectangle;connectable=0;fillColor=none;top=0;left=0;bottom=0;right=0;align=left;spacingLeft=6;overflow=hidden;whiteSpace=wrap;html=1;shadow=1;movable=1;cloneable=1;deletable=1;enumerate=0;comic=0;backgroundOutline=0;metaEdit=0;fixDash=0;snapToPoint=0;labelBackgroundColor=none;strokeColor=#0F8B8D;fontColor=#143642;rounded=1;" vertex="1" parent="Igezp09PnTVJK9evPPA8-34">
          <mxGeometry x="30" width="150" height="30" as="geometry">
            <mxRectangle width="150" height="30" as="alternateBounds" />
          </mxGeometry>
        </mxCell>
        <mxCell id="Igezp09PnTVJK9evPPA8-37" value="" style="shape=tableRow;horizontal=0;startSize=0;swimlaneHead=0;swimlaneBody=0;fillColor=none;collapsible=0;dropTarget=0;points=[[0,0.5],[1,0.5]];portConstraint=eastwest;top=0;left=0;right=0;bottom=0;shadow=1;movable=1;cloneable=1;deletable=1;enumerate=0;comic=0;backgroundOutline=0;metaEdit=0;fixDash=0;snapToPoint=0;labelBackgroundColor=none;strokeColor=#0F8B8D;fontColor=#143642;rounded=1;" vertex="1" parent="Igezp09PnTVJK9evPPA8-30">
          <mxGeometry y="90" width="180" height="30" as="geometry" />
        </mxCell>
        <mxCell id="Igezp09PnTVJK9evPPA8-38" value="" style="shape=partialRectangle;connectable=0;fillColor=none;top=0;left=0;bottom=0;right=0;editable=1;overflow=hidden;whiteSpace=wrap;html=1;shadow=1;movable=1;cloneable=1;deletable=1;enumerate=0;comic=0;backgroundOutline=0;metaEdit=0;fixDash=0;snapToPoint=0;labelBackgroundColor=none;strokeColor=#0F8B8D;fontColor=#143642;rounded=1;" vertex="1" parent="Igezp09PnTVJK9evPPA8-37">
          <mxGeometry width="30" height="30" as="geometry">
            <mxRectangle width="30" height="30" as="alternateBounds" />
          </mxGeometry>
        </mxCell>
        <mxCell id="Igezp09PnTVJK9evPPA8-39" value="Customer_ID" style="shape=partialRectangle;connectable=0;fillColor=none;top=0;left=0;bottom=0;right=0;align=left;spacingLeft=6;overflow=hidden;whiteSpace=wrap;html=1;shadow=1;movable=1;cloneable=1;deletable=1;enumerate=0;comic=0;backgroundOutline=0;metaEdit=0;fixDash=0;snapToPoint=0;labelBackgroundColor=none;strokeColor=#0F8B8D;fontColor=#143642;rounded=1;" vertex="1" parent="Igezp09PnTVJK9evPPA8-37">
          <mxGeometry x="30" width="150" height="30" as="geometry">
            <mxRectangle width="150" height="30" as="alternateBounds" />
          </mxGeometry>
        </mxCell>
        <mxCell id="Igezp09PnTVJK9evPPA8-430" value="" style="shape=tableRow;horizontal=0;startSize=0;swimlaneHead=0;swimlaneBody=0;fillColor=none;collapsible=0;dropTarget=0;points=[[0,0.5],[1,0.5]];portConstraint=eastwest;top=0;left=0;right=0;bottom=0;labelBackgroundColor=none;strokeColor=#0F8B8D;fontColor=#143642;" vertex="1" parent="Igezp09PnTVJK9evPPA8-30">
          <mxGeometry y="120" width="180" height="30" as="geometry" />
        </mxCell>
        <mxCell id="Igezp09PnTVJK9evPPA8-431" value="" style="shape=partialRectangle;connectable=0;fillColor=none;top=0;left=0;bottom=0;right=0;editable=1;overflow=hidden;labelBackgroundColor=none;strokeColor=#0F8B8D;fontColor=#143642;" vertex="1" parent="Igezp09PnTVJK9evPPA8-430">
          <mxGeometry width="30" height="30" as="geometry">
            <mxRectangle width="30" height="30" as="alternateBounds" />
          </mxGeometry>
        </mxCell>
        <mxCell id="Igezp09PnTVJK9evPPA8-432" value="Order_details_ID" style="shape=partialRectangle;connectable=0;fillColor=none;top=0;left=0;bottom=0;right=0;align=left;spacingLeft=6;overflow=hidden;labelBackgroundColor=none;strokeColor=#0F8B8D;fontColor=#143642;" vertex="1" parent="Igezp09PnTVJK9evPPA8-430">
          <mxGeometry x="30" width="150" height="30" as="geometry">
            <mxRectangle width="150" height="30" as="alternateBounds" />
          </mxGeometry>
        </mxCell>
        <mxCell id="Igezp09PnTVJK9evPPA8-63" value="" style="shape=tableRow;horizontal=0;startSize=0;swimlaneHead=0;swimlaneBody=0;fillColor=none;collapsible=0;dropTarget=0;points=[[0,0.5],[1,0.5]];portConstraint=eastwest;top=0;left=0;right=0;bottom=0;shadow=1;movable=1;cloneable=1;deletable=1;enumerate=0;comic=0;backgroundOutline=0;metaEdit=0;fixDash=0;snapToPoint=0;labelBackgroundColor=none;strokeColor=#0F8B8D;fontColor=#143642;rounded=1;" vertex="1" parent="Igezp09PnTVJK9evPPA8-30">
          <mxGeometry y="150" width="180" height="30" as="geometry" />
        </mxCell>
        <mxCell id="Igezp09PnTVJK9evPPA8-64" value="" style="shape=partialRectangle;connectable=0;fillColor=none;top=0;left=0;bottom=0;right=0;editable=1;overflow=hidden;shadow=1;movable=1;cloneable=1;deletable=1;enumerate=0;comic=0;backgroundOutline=0;metaEdit=0;fixDash=0;snapToPoint=0;labelBackgroundColor=none;strokeColor=#0F8B8D;fontColor=#143642;rounded=1;" vertex="1" parent="Igezp09PnTVJK9evPPA8-63">
          <mxGeometry width="30" height="30" as="geometry">
            <mxRectangle width="30" height="30" as="alternateBounds" />
          </mxGeometry>
        </mxCell>
        <mxCell id="Igezp09PnTVJK9evPPA8-65" value="Date" style="shape=partialRectangle;connectable=0;fillColor=none;top=0;left=0;bottom=0;right=0;align=left;spacingLeft=6;overflow=hidden;shadow=1;movable=1;cloneable=1;deletable=1;enumerate=0;comic=0;backgroundOutline=0;metaEdit=0;fixDash=0;snapToPoint=0;labelBackgroundColor=none;strokeColor=#0F8B8D;fontColor=#143642;rounded=1;" vertex="1" parent="Igezp09PnTVJK9evPPA8-63">
          <mxGeometry x="30" width="150" height="30" as="geometry">
            <mxRectangle width="150" height="30" as="alternateBounds" />
          </mxGeometry>
        </mxCell>
        <mxCell id="Igezp09PnTVJK9evPPA8-183" value="" style="shape=tableRow;horizontal=0;startSize=0;swimlaneHead=0;swimlaneBody=0;fillColor=none;collapsible=0;dropTarget=0;points=[[0,0.5],[1,0.5]];portConstraint=eastwest;top=0;left=0;right=0;bottom=0;shadow=1;movable=1;cloneable=1;deletable=1;enumerate=0;comic=0;backgroundOutline=0;metaEdit=0;fixDash=0;snapToPoint=0;labelBackgroundColor=none;strokeColor=#0F8B8D;fontColor=#143642;rounded=1;" vertex="1" parent="Igezp09PnTVJK9evPPA8-30">
          <mxGeometry y="180" width="180" height="30" as="geometry" />
        </mxCell>
        <mxCell id="Igezp09PnTVJK9evPPA8-184" value="" style="shape=partialRectangle;connectable=0;fillColor=none;top=0;left=0;bottom=0;right=0;editable=1;overflow=hidden;shadow=1;movable=1;cloneable=1;deletable=1;enumerate=0;comic=0;backgroundOutline=0;metaEdit=0;fixDash=0;snapToPoint=0;labelBackgroundColor=none;strokeColor=#0F8B8D;fontColor=#143642;rounded=1;" vertex="1" parent="Igezp09PnTVJK9evPPA8-183">
          <mxGeometry width="30" height="30" as="geometry">
            <mxRectangle width="30" height="30" as="alternateBounds" />
          </mxGeometry>
        </mxCell>
        <mxCell id="Igezp09PnTVJK9evPPA8-185" value="Status" style="shape=partialRectangle;connectable=0;fillColor=none;top=0;left=0;bottom=0;right=0;align=left;spacingLeft=6;overflow=hidden;shadow=1;movable=1;cloneable=1;deletable=1;enumerate=0;comic=0;backgroundOutline=0;metaEdit=0;fixDash=0;snapToPoint=0;labelBackgroundColor=none;strokeColor=#0F8B8D;fontColor=#143642;rounded=1;" vertex="1" parent="Igezp09PnTVJK9evPPA8-183">
          <mxGeometry x="30" width="150" height="30" as="geometry">
            <mxRectangle width="150" height="30" as="alternateBounds" />
          </mxGeometry>
        </mxCell>
        <mxCell id="Igezp09PnTVJK9evPPA8-199" value="" style="shape=tableRow;horizontal=0;startSize=0;swimlaneHead=0;swimlaneBody=0;fillColor=none;collapsible=0;dropTarget=0;points=[[0,0.5],[1,0.5]];portConstraint=eastwest;top=0;left=0;right=0;bottom=0;shadow=1;movable=1;cloneable=1;deletable=1;enumerate=0;comic=0;backgroundOutline=0;metaEdit=0;fixDash=0;snapToPoint=0;labelBackgroundColor=none;strokeColor=#0F8B8D;fontColor=#143642;rounded=1;" vertex="1" parent="Igezp09PnTVJK9evPPA8-30">
          <mxGeometry y="210" width="180" height="30" as="geometry" />
        </mxCell>
        <mxCell id="Igezp09PnTVJK9evPPA8-200" value="" style="shape=partialRectangle;connectable=0;fillColor=none;top=0;left=0;bottom=0;right=0;editable=1;overflow=hidden;shadow=1;movable=1;cloneable=1;deletable=1;enumerate=0;comic=0;backgroundOutline=0;metaEdit=0;fixDash=0;snapToPoint=0;labelBackgroundColor=none;strokeColor=#0F8B8D;fontColor=#143642;rounded=1;" vertex="1" parent="Igezp09PnTVJK9evPPA8-199">
          <mxGeometry width="30" height="30" as="geometry">
            <mxRectangle width="30" height="30" as="alternateBounds" />
          </mxGeometry>
        </mxCell>
        <mxCell id="Igezp09PnTVJK9evPPA8-201" value="Notes" style="shape=partialRectangle;connectable=0;fillColor=none;top=0;left=0;bottom=0;right=0;align=left;spacingLeft=6;overflow=hidden;shadow=1;movable=1;cloneable=1;deletable=1;enumerate=0;comic=0;backgroundOutline=0;metaEdit=0;fixDash=0;snapToPoint=0;labelBackgroundColor=none;strokeColor=#0F8B8D;fontColor=#143642;rounded=1;" vertex="1" parent="Igezp09PnTVJK9evPPA8-199">
          <mxGeometry x="30" width="150" height="30" as="geometry">
            <mxRectangle width="150" height="30" as="alternateBounds" />
          </mxGeometry>
        </mxCell>
        <mxCell id="Igezp09PnTVJK9evPPA8-43" value="Customer" style="shape=table;startSize=30;container=1;collapsible=1;childLayout=tableLayout;fixedRows=1;rowLines=0;fontStyle=1;align=center;resizeLast=1;html=1;shadow=1;movable=1;cloneable=1;deletable=1;enumerate=0;comic=0;backgroundOutline=0;metaEdit=0;fixDash=0;snapToPoint=0;labelBackgroundColor=none;fillColor=#FAE5C7;strokeColor=#0F8B8D;fontColor=#143642;rounded=1;" vertex="1" parent="1">
          <mxGeometry x="123" y="287" width="180" height="210" as="geometry" />
        </mxCell>
        <mxCell id="Igezp09PnTVJK9evPPA8-44" value="" style="shape=tableRow;horizontal=0;startSize=0;swimlaneHead=0;swimlaneBody=0;fillColor=none;collapsible=0;dropTarget=0;points=[[0,0.5],[1,0.5]];portConstraint=eastwest;top=0;left=0;right=0;bottom=1;shadow=1;movable=1;cloneable=1;deletable=1;enumerate=0;comic=0;backgroundOutline=0;metaEdit=0;fixDash=0;snapToPoint=0;labelBackgroundColor=none;strokeColor=#0F8B8D;fontColor=#143642;rounded=1;" vertex="1" parent="Igezp09PnTVJK9evPPA8-43">
          <mxGeometry y="30" width="180" height="30" as="geometry" />
        </mxCell>
        <mxCell id="Igezp09PnTVJK9evPPA8-45" value="PK" style="shape=partialRectangle;connectable=0;fillColor=none;top=0;left=0;bottom=0;right=0;fontStyle=1;overflow=hidden;whiteSpace=wrap;html=1;shadow=1;movable=1;cloneable=1;deletable=1;enumerate=0;comic=0;backgroundOutline=0;metaEdit=0;fixDash=0;snapToPoint=0;labelBackgroundColor=none;strokeColor=#0F8B8D;fontColor=#143642;rounded=1;" vertex="1" parent="Igezp09PnTVJK9evPPA8-44">
          <mxGeometry width="30" height="30" as="geometry">
            <mxRectangle width="30" height="30" as="alternateBounds" />
          </mxGeometry>
        </mxCell>
        <mxCell id="Igezp09PnTVJK9evPPA8-46" value="ID" style="shape=partialRectangle;connectable=0;fillColor=none;top=0;left=0;bottom=0;right=0;align=left;spacingLeft=6;fontStyle=5;overflow=hidden;whiteSpace=wrap;html=1;shadow=1;movable=1;cloneable=1;deletable=1;enumerate=0;comic=0;backgroundOutline=0;metaEdit=0;fixDash=0;snapToPoint=0;labelBackgroundColor=none;strokeColor=#0F8B8D;fontColor=#143642;rounded=1;" vertex="1" parent="Igezp09PnTVJK9evPPA8-44">
          <mxGeometry x="30" width="150" height="30" as="geometry">
            <mxRectangle width="150" height="30" as="alternateBounds" />
          </mxGeometry>
        </mxCell>
        <mxCell id="Igezp09PnTVJK9evPPA8-47" value="" style="shape=tableRow;horizontal=0;startSize=0;swimlaneHead=0;swimlaneBody=0;fillColor=none;collapsible=0;dropTarget=0;points=[[0,0.5],[1,0.5]];portConstraint=eastwest;top=0;left=0;right=0;bottom=0;shadow=1;movable=1;cloneable=1;deletable=1;enumerate=0;comic=0;backgroundOutline=0;metaEdit=0;fixDash=0;snapToPoint=0;labelBackgroundColor=none;strokeColor=#0F8B8D;fontColor=#143642;rounded=1;" vertex="1" parent="Igezp09PnTVJK9evPPA8-43">
          <mxGeometry y="60" width="180" height="30" as="geometry" />
        </mxCell>
        <mxCell id="Igezp09PnTVJK9evPPA8-48" value="" style="shape=partialRectangle;connectable=0;fillColor=none;top=0;left=0;bottom=0;right=0;editable=1;overflow=hidden;whiteSpace=wrap;html=1;shadow=1;movable=1;cloneable=1;deletable=1;enumerate=0;comic=0;backgroundOutline=0;metaEdit=0;fixDash=0;snapToPoint=0;labelBackgroundColor=none;strokeColor=#0F8B8D;fontColor=#143642;rounded=1;" vertex="1" parent="Igezp09PnTVJK9evPPA8-47">
          <mxGeometry width="30" height="30" as="geometry">
            <mxRectangle width="30" height="30" as="alternateBounds" />
          </mxGeometry>
        </mxCell>
        <mxCell id="Igezp09PnTVJK9evPPA8-49" value="Name" style="shape=partialRectangle;connectable=0;fillColor=none;top=0;left=0;bottom=0;right=0;align=left;spacingLeft=6;overflow=hidden;whiteSpace=wrap;html=1;shadow=1;movable=1;cloneable=1;deletable=1;enumerate=0;comic=0;backgroundOutline=0;metaEdit=0;fixDash=0;snapToPoint=0;labelBackgroundColor=none;strokeColor=#0F8B8D;fontColor=#143642;rounded=1;" vertex="1" parent="Igezp09PnTVJK9evPPA8-47">
          <mxGeometry x="30" width="150" height="30" as="geometry">
            <mxRectangle width="150" height="30" as="alternateBounds" />
          </mxGeometry>
        </mxCell>
        <mxCell id="Igezp09PnTVJK9evPPA8-53" value="" style="shape=tableRow;horizontal=0;startSize=0;swimlaneHead=0;swimlaneBody=0;fillColor=none;collapsible=0;dropTarget=0;points=[[0,0.5],[1,0.5]];portConstraint=eastwest;top=0;left=0;right=0;bottom=0;shadow=1;movable=1;cloneable=1;deletable=1;enumerate=0;comic=0;backgroundOutline=0;metaEdit=0;fixDash=0;snapToPoint=0;labelBackgroundColor=none;strokeColor=#0F8B8D;fontColor=#143642;rounded=1;" vertex="1" parent="Igezp09PnTVJK9evPPA8-43">
          <mxGeometry y="90" width="180" height="30" as="geometry" />
        </mxCell>
        <mxCell id="Igezp09PnTVJK9evPPA8-54" value="" style="shape=partialRectangle;connectable=0;fillColor=none;top=0;left=0;bottom=0;right=0;editable=1;overflow=hidden;whiteSpace=wrap;html=1;shadow=1;movable=1;cloneable=1;deletable=1;enumerate=0;comic=0;backgroundOutline=0;metaEdit=0;fixDash=0;snapToPoint=0;labelBackgroundColor=none;strokeColor=#0F8B8D;fontColor=#143642;rounded=1;" vertex="1" parent="Igezp09PnTVJK9evPPA8-53">
          <mxGeometry width="30" height="30" as="geometry">
            <mxRectangle width="30" height="30" as="alternateBounds" />
          </mxGeometry>
        </mxCell>
        <mxCell id="Igezp09PnTVJK9evPPA8-55" value="Contact_information" style="shape=partialRectangle;connectable=0;fillColor=none;top=0;left=0;bottom=0;right=0;align=left;spacingLeft=6;overflow=hidden;whiteSpace=wrap;html=1;shadow=1;movable=1;cloneable=1;deletable=1;enumerate=0;comic=0;backgroundOutline=0;metaEdit=0;fixDash=0;snapToPoint=0;labelBackgroundColor=none;strokeColor=#0F8B8D;fontColor=#143642;rounded=1;" vertex="1" parent="Igezp09PnTVJK9evPPA8-53">
          <mxGeometry x="30" width="150" height="30" as="geometry">
            <mxRectangle width="150" height="30" as="alternateBounds" />
          </mxGeometry>
        </mxCell>
        <mxCell id="Igezp09PnTVJK9evPPA8-203" value="" style="shape=tableRow;horizontal=0;startSize=0;swimlaneHead=0;swimlaneBody=0;fillColor=none;collapsible=0;dropTarget=0;points=[[0,0.5],[1,0.5]];portConstraint=eastwest;top=0;left=0;right=0;bottom=0;shadow=1;movable=1;cloneable=1;deletable=1;enumerate=0;comic=0;backgroundOutline=0;metaEdit=0;fixDash=0;snapToPoint=0;labelBackgroundColor=none;strokeColor=#0F8B8D;fontColor=#143642;rounded=1;" vertex="1" parent="Igezp09PnTVJK9evPPA8-43">
          <mxGeometry y="120" width="180" height="30" as="geometry" />
        </mxCell>
        <mxCell id="Igezp09PnTVJK9evPPA8-204" value="" style="shape=partialRectangle;connectable=0;fillColor=none;top=0;left=0;bottom=0;right=0;editable=1;overflow=hidden;shadow=1;movable=1;cloneable=1;deletable=1;enumerate=0;comic=0;backgroundOutline=0;metaEdit=0;fixDash=0;snapToPoint=0;labelBackgroundColor=none;strokeColor=#0F8B8D;fontColor=#143642;rounded=1;" vertex="1" parent="Igezp09PnTVJK9evPPA8-203">
          <mxGeometry width="30" height="30" as="geometry">
            <mxRectangle width="30" height="30" as="alternateBounds" />
          </mxGeometry>
        </mxCell>
        <mxCell id="Igezp09PnTVJK9evPPA8-205" value="Client_category" style="shape=partialRectangle;connectable=0;fillColor=none;top=0;left=0;bottom=0;right=0;align=left;spacingLeft=6;overflow=hidden;shadow=1;movable=1;cloneable=1;deletable=1;enumerate=0;comic=0;backgroundOutline=0;metaEdit=0;fixDash=0;snapToPoint=0;labelBackgroundColor=none;strokeColor=#0F8B8D;fontColor=#143642;rounded=1;" vertex="1" parent="Igezp09PnTVJK9evPPA8-203">
          <mxGeometry x="30" width="150" height="30" as="geometry">
            <mxRectangle width="150" height="30" as="alternateBounds" />
          </mxGeometry>
        </mxCell>
        <mxCell id="Igezp09PnTVJK9evPPA8-426" value="" style="shape=tableRow;horizontal=0;startSize=0;swimlaneHead=0;swimlaneBody=0;fillColor=none;collapsible=0;dropTarget=0;points=[[0,0.5],[1,0.5]];portConstraint=eastwest;top=0;left=0;right=0;bottom=0;shadow=1;movable=1;cloneable=1;deletable=1;enumerate=0;comic=0;backgroundOutline=0;metaEdit=0;fixDash=0;snapToPoint=0;labelBackgroundColor=none;strokeColor=#0F8B8D;fontColor=#143642;rounded=1;" vertex="1" parent="Igezp09PnTVJK9evPPA8-43">
          <mxGeometry y="150" width="180" height="30" as="geometry" />
        </mxCell>
        <mxCell id="Igezp09PnTVJK9evPPA8-427" value="" style="shape=partialRectangle;connectable=0;fillColor=none;top=0;left=0;bottom=0;right=0;editable=1;overflow=hidden;shadow=1;movable=1;cloneable=1;deletable=1;enumerate=0;comic=0;backgroundOutline=0;metaEdit=0;fixDash=0;snapToPoint=0;labelBackgroundColor=none;strokeColor=#0F8B8D;fontColor=#143642;rounded=1;" vertex="1" parent="Igezp09PnTVJK9evPPA8-426">
          <mxGeometry width="30" height="30" as="geometry">
            <mxRectangle width="30" height="30" as="alternateBounds" />
          </mxGeometry>
        </mxCell>
        <mxCell id="Igezp09PnTVJK9evPPA8-428" value="Payment_method" style="shape=partialRectangle;connectable=0;fillColor=none;top=0;left=0;bottom=0;right=0;align=left;spacingLeft=6;overflow=hidden;shadow=1;movable=1;cloneable=1;deletable=1;enumerate=0;comic=0;backgroundOutline=0;metaEdit=0;fixDash=0;snapToPoint=0;labelBackgroundColor=none;strokeColor=#0F8B8D;fontColor=#143642;rounded=1;" vertex="1" parent="Igezp09PnTVJK9evPPA8-426">
          <mxGeometry x="30" width="150" height="30" as="geometry">
            <mxRectangle width="150" height="30" as="alternateBounds" />
          </mxGeometry>
        </mxCell>
        <mxCell id="Igezp09PnTVJK9evPPA8-207" value="" style="shape=tableRow;horizontal=0;startSize=0;swimlaneHead=0;swimlaneBody=0;fillColor=none;collapsible=0;dropTarget=0;points=[[0,0.5],[1,0.5]];portConstraint=eastwest;top=0;left=0;right=0;bottom=0;shadow=1;movable=1;cloneable=1;deletable=1;enumerate=0;comic=0;backgroundOutline=0;metaEdit=0;fixDash=0;snapToPoint=0;labelBackgroundColor=none;strokeColor=#0F8B8D;fontColor=#143642;rounded=1;" vertex="1" parent="Igezp09PnTVJK9evPPA8-43">
          <mxGeometry y="180" width="180" height="30" as="geometry" />
        </mxCell>
        <mxCell id="Igezp09PnTVJK9evPPA8-208" value="" style="shape=partialRectangle;connectable=0;fillColor=none;top=0;left=0;bottom=0;right=0;editable=1;overflow=hidden;shadow=1;movable=1;cloneable=1;deletable=1;enumerate=0;comic=0;backgroundOutline=0;metaEdit=0;fixDash=0;snapToPoint=0;labelBackgroundColor=none;strokeColor=#0F8B8D;fontColor=#143642;rounded=1;" vertex="1" parent="Igezp09PnTVJK9evPPA8-207">
          <mxGeometry width="30" height="30" as="geometry">
            <mxRectangle width="30" height="30" as="alternateBounds" />
          </mxGeometry>
        </mxCell>
        <mxCell id="Igezp09PnTVJK9evPPA8-209" value="Additional_information" style="shape=partialRectangle;connectable=0;fillColor=none;top=0;left=0;bottom=0;right=0;align=left;spacingLeft=6;overflow=hidden;shadow=1;movable=1;cloneable=1;deletable=1;enumerate=0;comic=0;backgroundOutline=0;metaEdit=0;fixDash=0;snapToPoint=0;labelBackgroundColor=none;strokeColor=#0F8B8D;fontColor=#143642;rounded=1;" vertex="1" parent="Igezp09PnTVJK9evPPA8-207">
          <mxGeometry x="30" width="150" height="30" as="geometry">
            <mxRectangle width="150" height="30" as="alternateBounds" />
          </mxGeometry>
        </mxCell>
        <mxCell id="Igezp09PnTVJK9evPPA8-69" value="Made" style="shape=table;startSize=30;container=1;collapsible=1;childLayout=tableLayout;fixedRows=1;rowLines=0;fontStyle=1;align=center;resizeLast=1;html=1;shadow=1;movable=1;cloneable=1;deletable=1;enumerate=0;comic=0;backgroundOutline=0;metaEdit=0;fixDash=0;snapToPoint=0;labelBackgroundColor=none;fillColor=#FAE5C7;strokeColor=#0F8B8D;fontColor=#143642;rounded=1;" vertex="1" parent="1">
          <mxGeometry x="628" y="388" width="198" height="270" as="geometry" />
        </mxCell>
        <mxCell id="Igezp09PnTVJK9evPPA8-70" value="" style="shape=tableRow;horizontal=0;startSize=0;swimlaneHead=0;swimlaneBody=0;fillColor=none;collapsible=0;dropTarget=0;points=[[0,0.5],[1,0.5]];portConstraint=eastwest;top=0;left=0;right=0;bottom=1;shadow=1;movable=1;cloneable=1;deletable=1;enumerate=0;comic=0;backgroundOutline=0;metaEdit=0;fixDash=0;snapToPoint=0;labelBackgroundColor=none;strokeColor=#0F8B8D;fontColor=#143642;rounded=1;" vertex="1" parent="Igezp09PnTVJK9evPPA8-69">
          <mxGeometry y="30" width="198" height="30" as="geometry" />
        </mxCell>
        <mxCell id="Igezp09PnTVJK9evPPA8-71" value="PK" style="shape=partialRectangle;connectable=0;fillColor=none;top=0;left=0;bottom=0;right=0;fontStyle=1;overflow=hidden;whiteSpace=wrap;html=1;shadow=1;movable=1;cloneable=1;deletable=1;enumerate=0;comic=0;backgroundOutline=0;metaEdit=0;fixDash=0;snapToPoint=0;labelBackgroundColor=none;strokeColor=#0F8B8D;fontColor=#143642;rounded=1;" vertex="1" parent="Igezp09PnTVJK9evPPA8-70">
          <mxGeometry width="30" height="30" as="geometry">
            <mxRectangle width="30" height="30" as="alternateBounds" />
          </mxGeometry>
        </mxCell>
        <mxCell id="Igezp09PnTVJK9evPPA8-72" value="ID" style="shape=partialRectangle;connectable=0;fillColor=none;top=0;left=0;bottom=0;right=0;align=left;spacingLeft=6;fontStyle=5;overflow=hidden;whiteSpace=wrap;html=1;shadow=1;movable=1;cloneable=1;deletable=1;enumerate=0;comic=0;backgroundOutline=0;metaEdit=0;fixDash=0;snapToPoint=0;labelBackgroundColor=none;strokeColor=#0F8B8D;fontColor=#143642;rounded=1;" vertex="1" parent="Igezp09PnTVJK9evPPA8-70">
          <mxGeometry x="30" width="168" height="30" as="geometry">
            <mxRectangle width="168" height="30" as="alternateBounds" />
          </mxGeometry>
        </mxCell>
        <mxCell id="Igezp09PnTVJK9evPPA8-79" value="" style="shape=tableRow;horizontal=0;startSize=0;swimlaneHead=0;swimlaneBody=0;fillColor=none;collapsible=0;dropTarget=0;points=[[0,0.5],[1,0.5]];portConstraint=eastwest;top=0;left=0;right=0;bottom=0;shadow=1;movable=1;cloneable=1;deletable=1;enumerate=0;comic=0;backgroundOutline=0;metaEdit=0;fixDash=0;snapToPoint=0;labelBackgroundColor=none;strokeColor=#0F8B8D;fontColor=#143642;rounded=1;" vertex="1" parent="Igezp09PnTVJK9evPPA8-69">
          <mxGeometry y="60" width="198" height="30" as="geometry" />
        </mxCell>
        <mxCell id="Igezp09PnTVJK9evPPA8-80" value="" style="shape=partialRectangle;connectable=0;fillColor=none;top=0;left=0;bottom=0;right=0;editable=1;overflow=hidden;whiteSpace=wrap;html=1;shadow=1;movable=1;cloneable=1;deletable=1;enumerate=0;comic=0;backgroundOutline=0;metaEdit=0;fixDash=0;snapToPoint=0;labelBackgroundColor=none;strokeColor=#0F8B8D;fontColor=#143642;rounded=1;" vertex="1" parent="Igezp09PnTVJK9evPPA8-79">
          <mxGeometry width="30" height="30" as="geometry">
            <mxRectangle width="30" height="30" as="alternateBounds" />
          </mxGeometry>
        </mxCell>
        <mxCell id="Igezp09PnTVJK9evPPA8-81" value="Name" style="shape=partialRectangle;connectable=0;fillColor=none;top=0;left=0;bottom=0;right=0;align=left;spacingLeft=6;overflow=hidden;whiteSpace=wrap;html=1;shadow=1;movable=1;cloneable=1;deletable=1;enumerate=0;comic=0;backgroundOutline=0;metaEdit=0;fixDash=0;snapToPoint=0;labelBackgroundColor=none;strokeColor=#0F8B8D;fontColor=#143642;rounded=1;" vertex="1" parent="Igezp09PnTVJK9evPPA8-79">
          <mxGeometry x="30" width="168" height="30" as="geometry">
            <mxRectangle width="168" height="30" as="alternateBounds" />
          </mxGeometry>
        </mxCell>
        <mxCell id="Igezp09PnTVJK9evPPA8-73" value="" style="shape=tableRow;horizontal=0;startSize=0;swimlaneHead=0;swimlaneBody=0;fillColor=none;collapsible=0;dropTarget=0;points=[[0,0.5],[1,0.5]];portConstraint=eastwest;top=0;left=0;right=0;bottom=0;shadow=1;movable=1;cloneable=1;deletable=1;enumerate=0;comic=0;backgroundOutline=0;metaEdit=0;fixDash=0;snapToPoint=0;labelBackgroundColor=none;strokeColor=#0F8B8D;fontColor=#143642;rounded=1;" vertex="1" parent="Igezp09PnTVJK9evPPA8-69">
          <mxGeometry y="90" width="198" height="30" as="geometry" />
        </mxCell>
        <mxCell id="Igezp09PnTVJK9evPPA8-74" value="" style="shape=partialRectangle;connectable=0;fillColor=none;top=0;left=0;bottom=0;right=0;editable=1;overflow=hidden;whiteSpace=wrap;html=1;shadow=1;movable=1;cloneable=1;deletable=1;enumerate=0;comic=0;backgroundOutline=0;metaEdit=0;fixDash=0;snapToPoint=0;labelBackgroundColor=none;strokeColor=#0F8B8D;fontColor=#143642;rounded=1;" vertex="1" parent="Igezp09PnTVJK9evPPA8-73">
          <mxGeometry width="30" height="30" as="geometry">
            <mxRectangle width="30" height="30" as="alternateBounds" />
          </mxGeometry>
        </mxCell>
        <mxCell id="Igezp09PnTVJK9evPPA8-75" value="Manufacturer" style="shape=partialRectangle;connectable=0;fillColor=none;top=0;left=0;bottom=0;right=0;align=left;spacingLeft=6;overflow=hidden;whiteSpace=wrap;html=1;shadow=1;movable=1;cloneable=1;deletable=1;enumerate=0;comic=0;backgroundOutline=0;metaEdit=0;fixDash=0;snapToPoint=0;labelBackgroundColor=none;strokeColor=#0F8B8D;fontColor=#143642;rounded=1;" vertex="1" parent="Igezp09PnTVJK9evPPA8-73">
          <mxGeometry x="30" width="168" height="30" as="geometry">
            <mxRectangle width="168" height="30" as="alternateBounds" />
          </mxGeometry>
        </mxCell>
        <mxCell id="Igezp09PnTVJK9evPPA8-76" value="" style="shape=tableRow;horizontal=0;startSize=0;swimlaneHead=0;swimlaneBody=0;fillColor=none;collapsible=0;dropTarget=0;points=[[0,0.5],[1,0.5]];portConstraint=eastwest;top=0;left=0;right=0;bottom=0;shadow=1;movable=1;cloneable=1;deletable=1;enumerate=0;comic=0;backgroundOutline=0;metaEdit=0;fixDash=0;snapToPoint=0;labelBackgroundColor=none;strokeColor=#0F8B8D;fontColor=#143642;rounded=1;" vertex="1" parent="Igezp09PnTVJK9evPPA8-69">
          <mxGeometry y="120" width="198" height="30" as="geometry" />
        </mxCell>
        <mxCell id="Igezp09PnTVJK9evPPA8-77" value="" style="shape=partialRectangle;connectable=0;fillColor=none;top=0;left=0;bottom=0;right=0;editable=1;overflow=hidden;whiteSpace=wrap;html=1;shadow=1;movable=1;cloneable=1;deletable=1;enumerate=0;comic=0;backgroundOutline=0;metaEdit=0;fixDash=0;snapToPoint=0;labelBackgroundColor=none;strokeColor=#0F8B8D;fontColor=#143642;rounded=1;" vertex="1" parent="Igezp09PnTVJK9evPPA8-76">
          <mxGeometry width="30" height="30" as="geometry">
            <mxRectangle width="30" height="30" as="alternateBounds" />
          </mxGeometry>
        </mxCell>
        <mxCell id="Igezp09PnTVJK9evPPA8-78" value="Production_date" style="shape=partialRectangle;connectable=0;fillColor=none;top=0;left=0;bottom=0;right=0;align=left;spacingLeft=6;overflow=hidden;whiteSpace=wrap;html=1;shadow=1;movable=1;cloneable=1;deletable=1;enumerate=0;comic=0;backgroundOutline=0;metaEdit=0;fixDash=0;snapToPoint=0;labelBackgroundColor=none;strokeColor=#0F8B8D;fontColor=#143642;rounded=1;" vertex="1" parent="Igezp09PnTVJK9evPPA8-76">
          <mxGeometry x="30" width="168" height="30" as="geometry">
            <mxRectangle width="168" height="30" as="alternateBounds" />
          </mxGeometry>
        </mxCell>
        <mxCell id="Igezp09PnTVJK9evPPA8-154" value="" style="shape=tableRow;horizontal=0;startSize=0;swimlaneHead=0;swimlaneBody=0;fillColor=none;collapsible=0;dropTarget=0;points=[[0,0.5],[1,0.5]];portConstraint=eastwest;top=0;left=0;right=0;bottom=0;shadow=1;movable=1;cloneable=1;deletable=1;enumerate=0;comic=0;backgroundOutline=0;metaEdit=0;fixDash=0;snapToPoint=0;labelBackgroundColor=none;strokeColor=#0F8B8D;fontColor=#143642;rounded=1;" vertex="1" parent="Igezp09PnTVJK9evPPA8-69">
          <mxGeometry y="150" width="198" height="30" as="geometry" />
        </mxCell>
        <mxCell id="Igezp09PnTVJK9evPPA8-155" value="" style="shape=partialRectangle;connectable=0;fillColor=none;top=0;left=0;bottom=0;right=0;editable=1;overflow=hidden;shadow=1;movable=1;cloneable=1;deletable=1;enumerate=0;comic=0;backgroundOutline=0;metaEdit=0;fixDash=0;snapToPoint=0;labelBackgroundColor=none;strokeColor=#0F8B8D;fontColor=#143642;rounded=1;" vertex="1" parent="Igezp09PnTVJK9evPPA8-154">
          <mxGeometry width="30" height="30" as="geometry">
            <mxRectangle width="30" height="30" as="alternateBounds" />
          </mxGeometry>
        </mxCell>
        <mxCell id="Igezp09PnTVJK9evPPA8-156" value="Address" style="shape=partialRectangle;connectable=0;fillColor=none;top=0;left=0;bottom=0;right=0;align=left;spacingLeft=6;overflow=hidden;shadow=1;movable=1;cloneable=1;deletable=1;enumerate=0;comic=0;backgroundOutline=0;metaEdit=0;fixDash=0;snapToPoint=0;labelBackgroundColor=none;strokeColor=#0F8B8D;fontColor=#143642;rounded=1;" vertex="1" parent="Igezp09PnTVJK9evPPA8-154">
          <mxGeometry x="30" width="168" height="30" as="geometry">
            <mxRectangle width="168" height="30" as="alternateBounds" />
          </mxGeometry>
        </mxCell>
        <mxCell id="Igezp09PnTVJK9evPPA8-231" value="" style="shape=tableRow;horizontal=0;startSize=0;swimlaneHead=0;swimlaneBody=0;fillColor=none;collapsible=0;dropTarget=0;points=[[0,0.5],[1,0.5]];portConstraint=eastwest;top=0;left=0;right=0;bottom=0;shadow=1;movable=1;cloneable=1;deletable=1;enumerate=0;comic=0;backgroundOutline=0;metaEdit=0;fixDash=0;snapToPoint=0;labelBackgroundColor=none;strokeColor=#0F8B8D;fontColor=#143642;rounded=1;" vertex="1" parent="Igezp09PnTVJK9evPPA8-69">
          <mxGeometry y="180" width="198" height="30" as="geometry" />
        </mxCell>
        <mxCell id="Igezp09PnTVJK9evPPA8-232" value="" style="shape=partialRectangle;connectable=0;fillColor=none;top=0;left=0;bottom=0;right=0;editable=1;overflow=hidden;shadow=1;movable=1;cloneable=1;deletable=1;enumerate=0;comic=0;backgroundOutline=0;metaEdit=0;fixDash=0;snapToPoint=0;labelBackgroundColor=none;strokeColor=#0F8B8D;fontColor=#143642;rounded=1;" vertex="1" parent="Igezp09PnTVJK9evPPA8-231">
          <mxGeometry width="30" height="30" as="geometry">
            <mxRectangle width="30" height="30" as="alternateBounds" />
          </mxGeometry>
        </mxCell>
        <mxCell id="Igezp09PnTVJK9evPPA8-233" value="Expiry_date" style="shape=partialRectangle;connectable=0;fillColor=none;top=0;left=0;bottom=0;right=0;align=left;spacingLeft=6;overflow=hidden;shadow=1;movable=1;cloneable=1;deletable=1;enumerate=0;comic=0;backgroundOutline=0;metaEdit=0;fixDash=0;snapToPoint=0;labelBackgroundColor=none;strokeColor=#0F8B8D;fontColor=#143642;rounded=1;" vertex="1" parent="Igezp09PnTVJK9evPPA8-231">
          <mxGeometry x="30" width="168" height="30" as="geometry">
            <mxRectangle width="168" height="30" as="alternateBounds" />
          </mxGeometry>
        </mxCell>
        <mxCell id="Igezp09PnTVJK9evPPA8-247" value="" style="shape=tableRow;horizontal=0;startSize=0;swimlaneHead=0;swimlaneBody=0;fillColor=none;collapsible=0;dropTarget=0;points=[[0,0.5],[1,0.5]];portConstraint=eastwest;top=0;left=0;right=0;bottom=0;shadow=1;movable=1;cloneable=1;deletable=1;enumerate=0;comic=0;backgroundOutline=0;metaEdit=0;fixDash=0;snapToPoint=0;labelBackgroundColor=none;strokeColor=#0F8B8D;fontColor=#143642;rounded=1;" vertex="1" parent="Igezp09PnTVJK9evPPA8-69">
          <mxGeometry y="210" width="198" height="30" as="geometry" />
        </mxCell>
        <mxCell id="Igezp09PnTVJK9evPPA8-248" value="" style="shape=partialRectangle;connectable=0;fillColor=none;top=0;left=0;bottom=0;right=0;editable=1;overflow=hidden;shadow=1;movable=1;cloneable=1;deletable=1;enumerate=0;comic=0;backgroundOutline=0;metaEdit=0;fixDash=0;snapToPoint=0;labelBackgroundColor=none;strokeColor=#0F8B8D;fontColor=#143642;rounded=1;" vertex="1" parent="Igezp09PnTVJK9evPPA8-247">
          <mxGeometry width="30" height="30" as="geometry">
            <mxRectangle width="30" height="30" as="alternateBounds" />
          </mxGeometry>
        </mxCell>
        <mxCell id="Igezp09PnTVJK9evPPA8-249" value="Warehouse_location" style="shape=partialRectangle;connectable=0;fillColor=none;top=0;left=0;bottom=0;right=0;align=left;spacingLeft=6;overflow=hidden;shadow=1;movable=1;cloneable=1;deletable=1;enumerate=0;comic=0;backgroundOutline=0;metaEdit=0;fixDash=0;snapToPoint=0;labelBackgroundColor=none;strokeColor=#0F8B8D;fontColor=#143642;rounded=1;" vertex="1" parent="Igezp09PnTVJK9evPPA8-247">
          <mxGeometry x="30" width="168" height="30" as="geometry">
            <mxRectangle width="168" height="30" as="alternateBounds" />
          </mxGeometry>
        </mxCell>
        <mxCell id="Igezp09PnTVJK9evPPA8-435" value="" style="shape=tableRow;horizontal=0;startSize=0;swimlaneHead=0;swimlaneBody=0;fillColor=none;collapsible=0;dropTarget=0;points=[[0,0.5],[1,0.5]];portConstraint=eastwest;top=0;left=0;right=0;bottom=0;strokeColor=#0F8B8D;fontColor=#143642;" vertex="1" parent="Igezp09PnTVJK9evPPA8-69">
          <mxGeometry y="240" width="198" height="30" as="geometry" />
        </mxCell>
        <mxCell id="Igezp09PnTVJK9evPPA8-436" value="" style="shape=partialRectangle;connectable=0;fillColor=none;top=0;left=0;bottom=0;right=0;editable=1;overflow=hidden;strokeColor=#0F8B8D;fontColor=#143642;" vertex="1" parent="Igezp09PnTVJK9evPPA8-435">
          <mxGeometry width="30" height="30" as="geometry">
            <mxRectangle width="30" height="30" as="alternateBounds" />
          </mxGeometry>
        </mxCell>
        <mxCell id="Igezp09PnTVJK9evPPA8-437" value="Manufacturer_supplier_ID" style="shape=partialRectangle;connectable=0;fillColor=none;top=0;left=0;bottom=0;right=0;align=left;spacingLeft=6;overflow=hidden;strokeColor=#0F8B8D;fontColor=#143642;" vertex="1" parent="Igezp09PnTVJK9evPPA8-435">
          <mxGeometry x="30" width="168" height="30" as="geometry">
            <mxRectangle width="168" height="30" as="alternateBounds" />
          </mxGeometry>
        </mxCell>
        <mxCell id="Igezp09PnTVJK9evPPA8-82" value="Category" style="shape=table;startSize=30;container=1;collapsible=1;childLayout=tableLayout;fixedRows=1;rowLines=0;fontStyle=1;align=center;resizeLast=1;html=1;shadow=1;movable=1;cloneable=1;deletable=1;enumerate=0;comic=0;backgroundOutline=0;metaEdit=0;fixDash=0;snapToPoint=0;labelBackgroundColor=none;fillColor=#FAE5C7;strokeColor=#0F8B8D;fontColor=#143642;rounded=1;" vertex="1" parent="1">
          <mxGeometry x="863" y="27" width="180" height="90" as="geometry" />
        </mxCell>
        <mxCell id="Igezp09PnTVJK9evPPA8-83" value="" style="shape=tableRow;horizontal=0;startSize=0;swimlaneHead=0;swimlaneBody=0;fillColor=none;collapsible=0;dropTarget=0;points=[[0,0.5],[1,0.5]];portConstraint=eastwest;top=0;left=0;right=0;bottom=1;shadow=1;movable=1;cloneable=1;deletable=1;enumerate=0;comic=0;backgroundOutline=0;metaEdit=0;fixDash=0;snapToPoint=0;labelBackgroundColor=none;strokeColor=#0F8B8D;fontColor=#143642;rounded=1;" vertex="1" parent="Igezp09PnTVJK9evPPA8-82">
          <mxGeometry y="30" width="180" height="30" as="geometry" />
        </mxCell>
        <mxCell id="Igezp09PnTVJK9evPPA8-84" value="PK" style="shape=partialRectangle;connectable=0;fillColor=none;top=0;left=0;bottom=0;right=0;fontStyle=1;overflow=hidden;whiteSpace=wrap;html=1;shadow=1;movable=1;cloneable=1;deletable=1;enumerate=0;comic=0;backgroundOutline=0;metaEdit=0;fixDash=0;snapToPoint=0;labelBackgroundColor=none;strokeColor=#0F8B8D;fontColor=#143642;rounded=1;" vertex="1" parent="Igezp09PnTVJK9evPPA8-83">
          <mxGeometry width="30" height="30" as="geometry">
            <mxRectangle width="30" height="30" as="alternateBounds" />
          </mxGeometry>
        </mxCell>
        <mxCell id="Igezp09PnTVJK9evPPA8-85" value="ID" style="shape=partialRectangle;connectable=0;fillColor=none;top=0;left=0;bottom=0;right=0;align=left;spacingLeft=6;fontStyle=5;overflow=hidden;whiteSpace=wrap;html=1;shadow=1;movable=1;cloneable=1;deletable=1;enumerate=0;comic=0;backgroundOutline=0;metaEdit=0;fixDash=0;snapToPoint=0;labelBackgroundColor=none;strokeColor=#0F8B8D;fontColor=#143642;rounded=1;" vertex="1" parent="Igezp09PnTVJK9evPPA8-83">
          <mxGeometry x="30" width="150" height="30" as="geometry">
            <mxRectangle width="150" height="30" as="alternateBounds" />
          </mxGeometry>
        </mxCell>
        <mxCell id="Igezp09PnTVJK9evPPA8-86" value="" style="shape=tableRow;horizontal=0;startSize=0;swimlaneHead=0;swimlaneBody=0;fillColor=none;collapsible=0;dropTarget=0;points=[[0,0.5],[1,0.5]];portConstraint=eastwest;top=0;left=0;right=0;bottom=0;shadow=1;movable=1;cloneable=1;deletable=1;enumerate=0;comic=0;backgroundOutline=0;metaEdit=0;fixDash=0;snapToPoint=0;labelBackgroundColor=none;strokeColor=#0F8B8D;fontColor=#143642;rounded=1;" vertex="1" parent="Igezp09PnTVJK9evPPA8-82">
          <mxGeometry y="60" width="180" height="30" as="geometry" />
        </mxCell>
        <mxCell id="Igezp09PnTVJK9evPPA8-87" value="" style="shape=partialRectangle;connectable=0;fillColor=none;top=0;left=0;bottom=0;right=0;editable=1;overflow=hidden;whiteSpace=wrap;html=1;shadow=1;movable=1;cloneable=1;deletable=1;enumerate=0;comic=0;backgroundOutline=0;metaEdit=0;fixDash=0;snapToPoint=0;labelBackgroundColor=none;strokeColor=#0F8B8D;fontColor=#143642;rounded=1;" vertex="1" parent="Igezp09PnTVJK9evPPA8-86">
          <mxGeometry width="30" height="30" as="geometry">
            <mxRectangle width="30" height="30" as="alternateBounds" />
          </mxGeometry>
        </mxCell>
        <mxCell id="Igezp09PnTVJK9evPPA8-88" value="Category_name" style="shape=partialRectangle;connectable=0;fillColor=none;top=0;left=0;bottom=0;right=0;align=left;spacingLeft=6;overflow=hidden;whiteSpace=wrap;html=1;shadow=1;movable=1;cloneable=1;deletable=1;enumerate=0;comic=0;backgroundOutline=0;metaEdit=0;fixDash=0;snapToPoint=0;labelBackgroundColor=none;strokeColor=#0F8B8D;fontColor=#143642;rounded=1;" vertex="1" parent="Igezp09PnTVJK9evPPA8-86">
          <mxGeometry x="30" width="150" height="30" as="geometry">
            <mxRectangle width="150" height="30" as="alternateBounds" />
          </mxGeometry>
        </mxCell>
        <mxCell id="Igezp09PnTVJK9evPPA8-95" value="Type" style="shape=table;startSize=30;container=1;collapsible=1;childLayout=tableLayout;fixedRows=1;rowLines=0;fontStyle=1;align=center;resizeLast=1;html=1;shadow=1;movable=1;cloneable=1;deletable=1;enumerate=0;comic=0;backgroundOutline=0;metaEdit=0;fixDash=0;snapToPoint=0;labelBackgroundColor=none;fillColor=#FAE5C7;strokeColor=#0F8B8D;fontColor=#143642;rounded=1;" vertex="1" parent="1">
          <mxGeometry x="863" y="287" width="180" height="90" as="geometry" />
        </mxCell>
        <mxCell id="Igezp09PnTVJK9evPPA8-96" value="" style="shape=tableRow;horizontal=0;startSize=0;swimlaneHead=0;swimlaneBody=0;fillColor=none;collapsible=0;dropTarget=0;points=[[0,0.5],[1,0.5]];portConstraint=eastwest;top=0;left=0;right=0;bottom=1;shadow=1;movable=1;cloneable=1;deletable=1;enumerate=0;comic=0;backgroundOutline=0;metaEdit=0;fixDash=0;snapToPoint=0;labelBackgroundColor=none;strokeColor=#0F8B8D;fontColor=#143642;rounded=1;" vertex="1" parent="Igezp09PnTVJK9evPPA8-95">
          <mxGeometry y="30" width="180" height="30" as="geometry" />
        </mxCell>
        <mxCell id="Igezp09PnTVJK9evPPA8-97" value="PK" style="shape=partialRectangle;connectable=0;fillColor=none;top=0;left=0;bottom=0;right=0;fontStyle=1;overflow=hidden;whiteSpace=wrap;html=1;shadow=1;movable=1;cloneable=1;deletable=1;enumerate=0;comic=0;backgroundOutline=0;metaEdit=0;fixDash=0;snapToPoint=0;labelBackgroundColor=none;strokeColor=#0F8B8D;fontColor=#143642;rounded=1;" vertex="1" parent="Igezp09PnTVJK9evPPA8-96">
          <mxGeometry width="30" height="30" as="geometry">
            <mxRectangle width="30" height="30" as="alternateBounds" />
          </mxGeometry>
        </mxCell>
        <mxCell id="Igezp09PnTVJK9evPPA8-98" value="ID" style="shape=partialRectangle;connectable=0;fillColor=none;top=0;left=0;bottom=0;right=0;align=left;spacingLeft=6;fontStyle=5;overflow=hidden;whiteSpace=wrap;html=1;shadow=1;movable=1;cloneable=1;deletable=1;enumerate=0;comic=0;backgroundOutline=0;metaEdit=0;fixDash=0;snapToPoint=0;labelBackgroundColor=none;strokeColor=#0F8B8D;fontColor=#143642;rounded=1;" vertex="1" parent="Igezp09PnTVJK9evPPA8-96">
          <mxGeometry x="30" width="150" height="30" as="geometry">
            <mxRectangle width="150" height="30" as="alternateBounds" />
          </mxGeometry>
        </mxCell>
        <mxCell id="Igezp09PnTVJK9evPPA8-99" value="" style="shape=tableRow;horizontal=0;startSize=0;swimlaneHead=0;swimlaneBody=0;fillColor=none;collapsible=0;dropTarget=0;points=[[0,0.5],[1,0.5]];portConstraint=eastwest;top=0;left=0;right=0;bottom=0;shadow=1;movable=1;cloneable=1;deletable=1;enumerate=0;comic=0;backgroundOutline=0;metaEdit=0;fixDash=0;snapToPoint=0;labelBackgroundColor=none;strokeColor=#0F8B8D;fontColor=#143642;rounded=1;" vertex="1" parent="Igezp09PnTVJK9evPPA8-95">
          <mxGeometry y="60" width="180" height="30" as="geometry" />
        </mxCell>
        <mxCell id="Igezp09PnTVJK9evPPA8-100" value="" style="shape=partialRectangle;connectable=0;fillColor=none;top=0;left=0;bottom=0;right=0;editable=1;overflow=hidden;whiteSpace=wrap;html=1;shadow=1;movable=1;cloneable=1;deletable=1;enumerate=0;comic=0;backgroundOutline=0;metaEdit=0;fixDash=0;snapToPoint=0;labelBackgroundColor=none;strokeColor=#0F8B8D;fontColor=#143642;rounded=1;" vertex="1" parent="Igezp09PnTVJK9evPPA8-99">
          <mxGeometry width="30" height="30" as="geometry">
            <mxRectangle width="30" height="30" as="alternateBounds" />
          </mxGeometry>
        </mxCell>
        <mxCell id="Igezp09PnTVJK9evPPA8-101" value="Type_name" style="shape=partialRectangle;connectable=0;fillColor=none;top=0;left=0;bottom=0;right=0;align=left;spacingLeft=6;overflow=hidden;whiteSpace=wrap;html=1;shadow=1;movable=1;cloneable=1;deletable=1;enumerate=0;comic=0;backgroundOutline=0;metaEdit=0;fixDash=0;snapToPoint=0;labelBackgroundColor=none;strokeColor=#0F8B8D;fontColor=#143642;rounded=1;" vertex="1" parent="Igezp09PnTVJK9evPPA8-99">
          <mxGeometry x="30" width="150" height="30" as="geometry">
            <mxRectangle width="150" height="30" as="alternateBounds" />
          </mxGeometry>
        </mxCell>
        <mxCell id="Igezp09PnTVJK9evPPA8-108" value="Subcategory" style="shape=table;startSize=30;container=1;collapsible=1;childLayout=tableLayout;fixedRows=1;rowLines=0;fontStyle=1;align=center;resizeLast=1;html=1;shadow=1;movable=1;cloneable=1;deletable=1;enumerate=0;comic=0;backgroundOutline=0;metaEdit=0;fixDash=0;snapToPoint=0;labelBackgroundColor=none;fillColor=#FAE5C7;strokeColor=#0F8B8D;fontColor=#143642;rounded=1;" vertex="1" parent="1">
          <mxGeometry x="863" y="147" width="180" height="120" as="geometry" />
        </mxCell>
        <mxCell id="Igezp09PnTVJK9evPPA8-109" value="" style="shape=tableRow;horizontal=0;startSize=0;swimlaneHead=0;swimlaneBody=0;fillColor=none;collapsible=0;dropTarget=0;points=[[0,0.5],[1,0.5]];portConstraint=eastwest;top=0;left=0;right=0;bottom=1;shadow=1;movable=1;cloneable=1;deletable=1;enumerate=0;comic=0;backgroundOutline=0;metaEdit=0;fixDash=0;snapToPoint=0;labelBackgroundColor=none;strokeColor=#0F8B8D;fontColor=#143642;rounded=1;" vertex="1" parent="Igezp09PnTVJK9evPPA8-108">
          <mxGeometry y="30" width="180" height="30" as="geometry" />
        </mxCell>
        <mxCell id="Igezp09PnTVJK9evPPA8-110" value="PK" style="shape=partialRectangle;connectable=0;fillColor=none;top=0;left=0;bottom=0;right=0;fontStyle=1;overflow=hidden;whiteSpace=wrap;html=1;shadow=1;movable=1;cloneable=1;deletable=1;enumerate=0;comic=0;backgroundOutline=0;metaEdit=0;fixDash=0;snapToPoint=0;labelBackgroundColor=none;strokeColor=#0F8B8D;fontColor=#143642;rounded=1;" vertex="1" parent="Igezp09PnTVJK9evPPA8-109">
          <mxGeometry width="30" height="30" as="geometry">
            <mxRectangle width="30" height="30" as="alternateBounds" />
          </mxGeometry>
        </mxCell>
        <mxCell id="Igezp09PnTVJK9evPPA8-111" value="ID" style="shape=partialRectangle;connectable=0;fillColor=none;top=0;left=0;bottom=0;right=0;align=left;spacingLeft=6;fontStyle=5;overflow=hidden;whiteSpace=wrap;html=1;shadow=1;movable=1;cloneable=1;deletable=1;enumerate=0;comic=0;backgroundOutline=0;metaEdit=0;fixDash=0;snapToPoint=0;labelBackgroundColor=none;strokeColor=#0F8B8D;fontColor=#143642;rounded=1;" vertex="1" parent="Igezp09PnTVJK9evPPA8-109">
          <mxGeometry x="30" width="150" height="30" as="geometry">
            <mxRectangle width="150" height="30" as="alternateBounds" />
          </mxGeometry>
        </mxCell>
        <mxCell id="Igezp09PnTVJK9evPPA8-112" value="" style="shape=tableRow;horizontal=0;startSize=0;swimlaneHead=0;swimlaneBody=0;fillColor=none;collapsible=0;dropTarget=0;points=[[0,0.5],[1,0.5]];portConstraint=eastwest;top=0;left=0;right=0;bottom=0;shadow=1;movable=1;cloneable=1;deletable=1;enumerate=0;comic=0;backgroundOutline=0;metaEdit=0;fixDash=0;snapToPoint=0;labelBackgroundColor=none;strokeColor=#0F8B8D;fontColor=#143642;rounded=1;" vertex="1" parent="Igezp09PnTVJK9evPPA8-108">
          <mxGeometry y="60" width="180" height="30" as="geometry" />
        </mxCell>
        <mxCell id="Igezp09PnTVJK9evPPA8-113" value="" style="shape=partialRectangle;connectable=0;fillColor=none;top=0;left=0;bottom=0;right=0;editable=1;overflow=hidden;whiteSpace=wrap;html=1;shadow=1;movable=1;cloneable=1;deletable=1;enumerate=0;comic=0;backgroundOutline=0;metaEdit=0;fixDash=0;snapToPoint=0;labelBackgroundColor=none;strokeColor=#0F8B8D;fontColor=#143642;rounded=1;" vertex="1" parent="Igezp09PnTVJK9evPPA8-112">
          <mxGeometry width="30" height="30" as="geometry">
            <mxRectangle width="30" height="30" as="alternateBounds" />
          </mxGeometry>
        </mxCell>
        <mxCell id="Igezp09PnTVJK9evPPA8-114" value="Subcategory_name" style="shape=partialRectangle;connectable=0;fillColor=none;top=0;left=0;bottom=0;right=0;align=left;spacingLeft=6;overflow=hidden;whiteSpace=wrap;html=1;shadow=1;movable=1;cloneable=1;deletable=1;enumerate=0;comic=0;backgroundOutline=0;metaEdit=0;fixDash=0;snapToPoint=0;labelBackgroundColor=none;strokeColor=#0F8B8D;fontColor=#143642;rounded=1;" vertex="1" parent="Igezp09PnTVJK9evPPA8-112">
          <mxGeometry x="30" width="150" height="30" as="geometry">
            <mxRectangle width="150" height="30" as="alternateBounds" />
          </mxGeometry>
        </mxCell>
        <mxCell id="Igezp09PnTVJK9evPPA8-308" value="" style="shape=tableRow;horizontal=0;startSize=0;swimlaneHead=0;swimlaneBody=0;fillColor=none;collapsible=0;dropTarget=0;points=[[0,0.5],[1,0.5]];portConstraint=eastwest;top=0;left=0;right=0;bottom=0;shadow=1;movable=1;cloneable=1;deletable=1;enumerate=0;comic=0;backgroundOutline=0;metaEdit=0;fixDash=0;snapToPoint=0;labelBackgroundColor=none;strokeColor=#0F8B8D;fontColor=#143642;rounded=1;" vertex="1" parent="Igezp09PnTVJK9evPPA8-108">
          <mxGeometry y="90" width="180" height="30" as="geometry" />
        </mxCell>
        <mxCell id="Igezp09PnTVJK9evPPA8-309" value="" style="shape=partialRectangle;connectable=0;fillColor=none;top=0;left=0;bottom=0;right=0;editable=1;overflow=hidden;shadow=1;movable=1;cloneable=1;deletable=1;enumerate=0;comic=0;backgroundOutline=0;metaEdit=0;fixDash=0;snapToPoint=0;labelBackgroundColor=none;strokeColor=#0F8B8D;fontColor=#143642;rounded=1;" vertex="1" parent="Igezp09PnTVJK9evPPA8-308">
          <mxGeometry width="30" height="30" as="geometry">
            <mxRectangle width="30" height="30" as="alternateBounds" />
          </mxGeometry>
        </mxCell>
        <mxCell id="Igezp09PnTVJK9evPPA8-310" value="Category_ID " style="shape=partialRectangle;connectable=0;fillColor=none;top=0;left=0;bottom=0;right=0;align=left;spacingLeft=6;overflow=hidden;shadow=1;movable=1;cloneable=1;deletable=1;enumerate=0;comic=0;backgroundOutline=0;metaEdit=0;fixDash=0;snapToPoint=0;labelBackgroundColor=none;strokeColor=#0F8B8D;fontColor=#143642;rounded=1;" vertex="1" parent="Igezp09PnTVJK9evPPA8-308">
          <mxGeometry x="30" width="150" height="30" as="geometry">
            <mxRectangle width="150" height="30" as="alternateBounds" />
          </mxGeometry>
        </mxCell>
        <mxCell id="Igezp09PnTVJK9evPPA8-131" style="edgeStyle=orthogonalEdgeStyle;rounded=1;orthogonalLoop=1;jettySize=auto;html=1;exitX=1;exitY=0.5;exitDx=0;exitDy=0;shadow=1;movable=1;cloneable=1;deletable=1;enumerate=0;comic=0;backgroundOutline=0;metaEdit=0;fixDash=0;snapToPoint=0;labelBackgroundColor=none;strokeColor=#A8201A;fontColor=default;" edge="1" parent="1" source="Igezp09PnTVJK9evPPA8-18" target="Igezp09PnTVJK9evPPA8-34">
          <mxGeometry relative="1" as="geometry">
            <Array as="points">
              <mxPoint x="323" y="132" />
              <mxPoint x="323" y="132" />
            </Array>
          </mxGeometry>
        </mxCell>
        <mxCell id="Igezp09PnTVJK9evPPA8-132" style="edgeStyle=orthogonalEdgeStyle;rounded=1;orthogonalLoop=1;jettySize=auto;html=1;exitX=1;exitY=0.5;exitDx=0;exitDy=0;shadow=1;movable=1;cloneable=1;deletable=1;enumerate=0;comic=0;backgroundOutline=0;metaEdit=0;fixDash=0;snapToPoint=0;labelBackgroundColor=none;strokeColor=#A8201A;fontColor=default;" edge="1" parent="1" source="Igezp09PnTVJK9evPPA8-44" target="Igezp09PnTVJK9evPPA8-37">
          <mxGeometry relative="1" as="geometry">
            <Array as="points">
              <mxPoint x="333" y="332" />
              <mxPoint x="333" y="162" />
            </Array>
          </mxGeometry>
        </mxCell>
        <mxCell id="Igezp09PnTVJK9evPPA8-282" style="edgeStyle=orthogonalEdgeStyle;rounded=1;orthogonalLoop=1;jettySize=auto;html=1;exitX=1;exitY=0.5;exitDx=0;exitDy=0;shadow=1;movable=1;cloneable=1;deletable=1;enumerate=0;comic=0;backgroundOutline=0;metaEdit=0;fixDash=0;snapToPoint=0;labelBackgroundColor=none;strokeColor=#A8201A;fontColor=default;" edge="1" parent="1" source="Igezp09PnTVJK9evPPA8-150" target="Igezp09PnTVJK9evPPA8-96">
          <mxGeometry relative="1" as="geometry">
            <Array as="points">
              <mxPoint x="833" y="282" />
              <mxPoint x="833" y="327" />
            </Array>
          </mxGeometry>
        </mxCell>
        <mxCell id="Igezp09PnTVJK9evPPA8-284" style="edgeStyle=orthogonalEdgeStyle;rounded=1;orthogonalLoop=1;jettySize=auto;html=1;exitX=1;exitY=0.5;exitDx=0;exitDy=0;shadow=1;movable=1;cloneable=1;deletable=1;enumerate=0;comic=0;backgroundOutline=0;metaEdit=0;fixDash=0;snapToPoint=0;labelBackgroundColor=none;strokeColor=#A8201A;fontColor=default;" edge="1" parent="1" source="Igezp09PnTVJK9evPPA8-134" target="Igezp09PnTVJK9evPPA8-83">
          <mxGeometry relative="1" as="geometry">
            <Array as="points">
              <mxPoint x="843" y="222" />
              <mxPoint x="843" y="72" />
            </Array>
          </mxGeometry>
        </mxCell>
        <mxCell id="Igezp09PnTVJK9evPPA8-286" value="Order_details" style="shape=table;startSize=30;container=1;collapsible=1;childLayout=tableLayout;fixedRows=1;rowLines=0;fontStyle=1;align=center;resizeLast=1;html=1;shadow=1;movable=1;cloneable=1;deletable=1;enumerate=0;comic=0;backgroundOutline=0;metaEdit=0;fixDash=0;snapToPoint=0;labelBackgroundColor=none;fillColor=#FAE5C7;strokeColor=#0F8B8D;fontColor=#143642;rounded=1;" vertex="1" parent="1">
          <mxGeometry x="368" y="316" width="180" height="210" as="geometry" />
        </mxCell>
        <mxCell id="Igezp09PnTVJK9evPPA8-287" value="" style="shape=tableRow;horizontal=0;startSize=0;swimlaneHead=0;swimlaneBody=0;fillColor=none;collapsible=0;dropTarget=0;points=[[0,0.5],[1,0.5]];portConstraint=eastwest;top=0;left=0;right=0;bottom=1;shadow=1;movable=1;cloneable=1;deletable=1;enumerate=0;comic=0;backgroundOutline=0;metaEdit=0;fixDash=0;snapToPoint=0;labelBackgroundColor=none;strokeColor=#0F8B8D;fontColor=#143642;rounded=1;" vertex="1" parent="Igezp09PnTVJK9evPPA8-286">
          <mxGeometry y="30" width="180" height="30" as="geometry" />
        </mxCell>
        <mxCell id="Igezp09PnTVJK9evPPA8-288" value="PK" style="shape=partialRectangle;connectable=0;fillColor=none;top=0;left=0;bottom=0;right=0;fontStyle=1;overflow=hidden;whiteSpace=wrap;html=1;shadow=1;movable=1;cloneable=1;deletable=1;enumerate=0;comic=0;backgroundOutline=0;metaEdit=0;fixDash=0;snapToPoint=0;labelBackgroundColor=none;strokeColor=#0F8B8D;fontColor=#143642;rounded=1;" vertex="1" parent="Igezp09PnTVJK9evPPA8-287">
          <mxGeometry width="30" height="30" as="geometry">
            <mxRectangle width="30" height="30" as="alternateBounds" />
          </mxGeometry>
        </mxCell>
        <mxCell id="Igezp09PnTVJK9evPPA8-289" value="ID" style="shape=partialRectangle;connectable=0;fillColor=none;top=0;left=0;bottom=0;right=0;align=left;spacingLeft=6;fontStyle=5;overflow=hidden;whiteSpace=wrap;html=1;shadow=1;movable=1;cloneable=1;deletable=1;enumerate=0;comic=0;backgroundOutline=0;metaEdit=0;fixDash=0;snapToPoint=0;labelBackgroundColor=none;strokeColor=#0F8B8D;fontColor=#143642;rounded=1;" vertex="1" parent="Igezp09PnTVJK9evPPA8-287">
          <mxGeometry x="30" width="150" height="30" as="geometry">
            <mxRectangle width="150" height="30" as="alternateBounds" />
          </mxGeometry>
        </mxCell>
        <mxCell id="Igezp09PnTVJK9evPPA8-293" value="" style="shape=tableRow;horizontal=0;startSize=0;swimlaneHead=0;swimlaneBody=0;fillColor=none;collapsible=0;dropTarget=0;points=[[0,0.5],[1,0.5]];portConstraint=eastwest;top=0;left=0;right=0;bottom=0;shadow=1;movable=1;cloneable=1;deletable=1;enumerate=0;comic=0;backgroundOutline=0;metaEdit=0;fixDash=0;snapToPoint=0;labelBackgroundColor=none;strokeColor=#0F8B8D;fontColor=#143642;rounded=1;" vertex="1" parent="Igezp09PnTVJK9evPPA8-286">
          <mxGeometry y="60" width="180" height="30" as="geometry" />
        </mxCell>
        <mxCell id="Igezp09PnTVJK9evPPA8-294" value="" style="shape=partialRectangle;connectable=0;fillColor=none;top=0;left=0;bottom=0;right=0;editable=1;overflow=hidden;whiteSpace=wrap;html=1;shadow=1;movable=1;cloneable=1;deletable=1;enumerate=0;comic=0;backgroundOutline=0;metaEdit=0;fixDash=0;snapToPoint=0;labelBackgroundColor=none;strokeColor=#0F8B8D;fontColor=#143642;rounded=1;" vertex="1" parent="Igezp09PnTVJK9evPPA8-293">
          <mxGeometry width="30" height="30" as="geometry">
            <mxRectangle width="30" height="30" as="alternateBounds" />
          </mxGeometry>
        </mxCell>
        <mxCell id="Igezp09PnTVJK9evPPA8-295" value="Product_ID" style="shape=partialRectangle;connectable=0;fillColor=none;top=0;left=0;bottom=0;right=0;align=left;spacingLeft=6;overflow=hidden;whiteSpace=wrap;html=1;shadow=1;movable=1;cloneable=1;deletable=1;enumerate=0;comic=0;backgroundOutline=0;metaEdit=0;fixDash=0;snapToPoint=0;labelBackgroundColor=none;strokeColor=#0F8B8D;fontColor=#143642;rounded=1;" vertex="1" parent="Igezp09PnTVJK9evPPA8-293">
          <mxGeometry x="30" width="150" height="30" as="geometry">
            <mxRectangle width="150" height="30" as="alternateBounds" />
          </mxGeometry>
        </mxCell>
        <mxCell id="Igezp09PnTVJK9evPPA8-187" value="" style="shape=tableRow;horizontal=0;startSize=0;swimlaneHead=0;swimlaneBody=0;fillColor=none;collapsible=0;dropTarget=0;points=[[0,0.5],[1,0.5]];portConstraint=eastwest;top=0;left=0;right=0;bottom=0;shadow=1;movable=1;cloneable=1;deletable=1;enumerate=0;comic=0;backgroundOutline=0;metaEdit=0;fixDash=0;snapToPoint=0;labelBackgroundColor=none;strokeColor=#0F8B8D;fontColor=#143642;rounded=1;" vertex="1" parent="Igezp09PnTVJK9evPPA8-286">
          <mxGeometry y="90" width="180" height="30" as="geometry" />
        </mxCell>
        <mxCell id="Igezp09PnTVJK9evPPA8-188" value="" style="shape=partialRectangle;connectable=0;fillColor=none;top=0;left=0;bottom=0;right=0;editable=1;overflow=hidden;shadow=1;movable=1;cloneable=1;deletable=1;enumerate=0;comic=0;backgroundOutline=0;metaEdit=0;fixDash=0;snapToPoint=0;labelBackgroundColor=none;strokeColor=#0F8B8D;fontColor=#143642;rounded=1;" vertex="1" parent="Igezp09PnTVJK9evPPA8-187">
          <mxGeometry width="30" height="30" as="geometry">
            <mxRectangle width="30" height="30" as="alternateBounds" />
          </mxGeometry>
        </mxCell>
        <mxCell id="Igezp09PnTVJK9evPPA8-189" value="Payment_ID" style="shape=partialRectangle;connectable=0;fillColor=none;top=0;left=0;bottom=0;right=0;align=left;spacingLeft=6;overflow=hidden;shadow=1;movable=1;cloneable=1;deletable=1;enumerate=0;comic=0;backgroundOutline=0;metaEdit=0;fixDash=0;snapToPoint=0;labelBackgroundColor=none;strokeColor=#0F8B8D;fontColor=#143642;rounded=1;" vertex="1" parent="Igezp09PnTVJK9evPPA8-187">
          <mxGeometry x="30" width="150" height="30" as="geometry">
            <mxRectangle width="150" height="30" as="alternateBounds" />
          </mxGeometry>
        </mxCell>
        <mxCell id="Igezp09PnTVJK9evPPA8-410" value="" style="shape=tableRow;horizontal=0;startSize=0;swimlaneHead=0;swimlaneBody=0;fillColor=none;collapsible=0;dropTarget=0;points=[[0,0.5],[1,0.5]];portConstraint=eastwest;top=0;left=0;right=0;bottom=0;shadow=1;movable=1;cloneable=1;deletable=1;enumerate=0;comic=0;backgroundOutline=0;metaEdit=0;fixDash=0;snapToPoint=0;labelBackgroundColor=none;strokeColor=#0F8B8D;fontColor=#143642;rounded=1;" vertex="1" parent="Igezp09PnTVJK9evPPA8-286">
          <mxGeometry y="120" width="180" height="30" as="geometry" />
        </mxCell>
        <mxCell id="Igezp09PnTVJK9evPPA8-411" value="" style="shape=partialRectangle;connectable=0;fillColor=none;top=0;left=0;bottom=0;right=0;editable=1;overflow=hidden;shadow=1;movable=1;cloneable=1;deletable=1;enumerate=0;comic=0;backgroundOutline=0;metaEdit=0;fixDash=0;snapToPoint=0;labelBackgroundColor=none;strokeColor=#0F8B8D;fontColor=#143642;rounded=1;" vertex="1" parent="Igezp09PnTVJK9evPPA8-410">
          <mxGeometry width="30" height="30" as="geometry">
            <mxRectangle width="30" height="30" as="alternateBounds" />
          </mxGeometry>
        </mxCell>
        <mxCell id="Igezp09PnTVJK9evPPA8-412" value="Delivery_ID" style="shape=partialRectangle;connectable=0;fillColor=none;top=0;left=0;bottom=0;right=0;align=left;spacingLeft=6;overflow=hidden;shadow=1;movable=1;cloneable=1;deletable=1;enumerate=0;comic=0;backgroundOutline=0;metaEdit=0;fixDash=0;snapToPoint=0;labelBackgroundColor=none;strokeColor=#0F8B8D;fontColor=#143642;rounded=1;" vertex="1" parent="Igezp09PnTVJK9evPPA8-410">
          <mxGeometry x="30" width="150" height="30" as="geometry">
            <mxRectangle width="150" height="30" as="alternateBounds" />
          </mxGeometry>
        </mxCell>
        <mxCell id="Igezp09PnTVJK9evPPA8-296" value="" style="shape=tableRow;horizontal=0;startSize=0;swimlaneHead=0;swimlaneBody=0;fillColor=none;collapsible=0;dropTarget=0;points=[[0,0.5],[1,0.5]];portConstraint=eastwest;top=0;left=0;right=0;bottom=0;shadow=1;movable=1;cloneable=1;deletable=1;enumerate=0;comic=0;backgroundOutline=0;metaEdit=0;fixDash=0;snapToPoint=0;labelBackgroundColor=none;strokeColor=#0F8B8D;fontColor=#143642;rounded=1;" vertex="1" parent="Igezp09PnTVJK9evPPA8-286">
          <mxGeometry y="150" width="180" height="30" as="geometry" />
        </mxCell>
        <mxCell id="Igezp09PnTVJK9evPPA8-297" value="" style="shape=partialRectangle;connectable=0;fillColor=none;top=0;left=0;bottom=0;right=0;editable=1;overflow=hidden;whiteSpace=wrap;html=1;shadow=1;movable=1;cloneable=1;deletable=1;enumerate=0;comic=0;backgroundOutline=0;metaEdit=0;fixDash=0;snapToPoint=0;labelBackgroundColor=none;strokeColor=#0F8B8D;fontColor=#143642;rounded=1;" vertex="1" parent="Igezp09PnTVJK9evPPA8-296">
          <mxGeometry width="30" height="30" as="geometry">
            <mxRectangle width="30" height="30" as="alternateBounds" />
          </mxGeometry>
        </mxCell>
        <mxCell id="Igezp09PnTVJK9evPPA8-298" value="Quantity" style="shape=partialRectangle;connectable=0;fillColor=none;top=0;left=0;bottom=0;right=0;align=left;spacingLeft=6;overflow=hidden;whiteSpace=wrap;html=1;shadow=1;movable=1;cloneable=1;deletable=1;enumerate=0;comic=0;backgroundOutline=0;metaEdit=0;fixDash=0;snapToPoint=0;labelBackgroundColor=none;strokeColor=#0F8B8D;fontColor=#143642;rounded=1;" vertex="1" parent="Igezp09PnTVJK9evPPA8-296">
          <mxGeometry x="30" width="150" height="30" as="geometry">
            <mxRectangle width="150" height="30" as="alternateBounds" />
          </mxGeometry>
        </mxCell>
        <mxCell id="Igezp09PnTVJK9evPPA8-304" value="" style="shape=tableRow;horizontal=0;startSize=0;swimlaneHead=0;swimlaneBody=0;fillColor=none;collapsible=0;dropTarget=0;points=[[0,0.5],[1,0.5]];portConstraint=eastwest;top=0;left=0;right=0;bottom=0;shadow=1;movable=1;cloneable=1;deletable=1;enumerate=0;comic=0;backgroundOutline=0;metaEdit=0;fixDash=0;snapToPoint=0;labelBackgroundColor=none;strokeColor=#0F8B8D;fontColor=#143642;rounded=1;" vertex="1" parent="Igezp09PnTVJK9evPPA8-286">
          <mxGeometry y="180" width="180" height="30" as="geometry" />
        </mxCell>
        <mxCell id="Igezp09PnTVJK9evPPA8-305" value="" style="shape=partialRectangle;connectable=0;fillColor=none;top=0;left=0;bottom=0;right=0;editable=1;overflow=hidden;shadow=1;movable=1;cloneable=1;deletable=1;enumerate=0;comic=0;backgroundOutline=0;metaEdit=0;fixDash=0;snapToPoint=0;labelBackgroundColor=none;strokeColor=#0F8B8D;fontColor=#143642;rounded=1;" vertex="1" parent="Igezp09PnTVJK9evPPA8-304">
          <mxGeometry width="30" height="30" as="geometry">
            <mxRectangle width="30" height="30" as="alternateBounds" />
          </mxGeometry>
        </mxCell>
        <mxCell id="Igezp09PnTVJK9evPPA8-306" value="Amount" style="shape=partialRectangle;connectable=0;fillColor=none;top=0;left=0;bottom=0;right=0;align=left;spacingLeft=6;overflow=hidden;shadow=1;movable=1;cloneable=1;deletable=1;enumerate=0;comic=0;backgroundOutline=0;metaEdit=0;fixDash=0;snapToPoint=0;labelBackgroundColor=none;strokeColor=#0F8B8D;fontColor=#143642;rounded=1;" vertex="1" parent="Igezp09PnTVJK9evPPA8-304">
          <mxGeometry x="30" width="150" height="30" as="geometry">
            <mxRectangle width="150" height="30" as="alternateBounds" />
          </mxGeometry>
        </mxCell>
        <mxCell id="Igezp09PnTVJK9evPPA8-301" style="edgeStyle=orthogonalEdgeStyle;rounded=1;orthogonalLoop=1;jettySize=auto;html=1;shadow=1;movable=1;cloneable=1;deletable=1;enumerate=0;comic=0;backgroundOutline=0;metaEdit=0;fixDash=0;snapToPoint=0;labelBackgroundColor=none;strokeColor=#A8201A;fontColor=default;" edge="1" parent="1" source="Igezp09PnTVJK9evPPA8-293" target="Igezp09PnTVJK9evPPA8-2">
          <mxGeometry relative="1" as="geometry">
            <Array as="points">
              <mxPoint x="590" y="388" />
              <mxPoint x="590" y="72" />
            </Array>
          </mxGeometry>
        </mxCell>
        <mxCell id="Igezp09PnTVJK9evPPA8-311" style="edgeStyle=orthogonalEdgeStyle;rounded=1;orthogonalLoop=1;jettySize=auto;html=1;shadow=1;movable=1;cloneable=1;deletable=1;enumerate=0;comic=0;backgroundOutline=0;metaEdit=0;fixDash=0;snapToPoint=0;labelBackgroundColor=none;strokeColor=#A8201A;fontColor=default;" edge="1" parent="1" source="Igezp09PnTVJK9evPPA8-308" target="Igezp09PnTVJK9evPPA8-83">
          <mxGeometry relative="1" as="geometry">
            <Array as="points">
              <mxPoint x="1073" y="252" />
              <mxPoint x="1073" y="72" />
            </Array>
          </mxGeometry>
        </mxCell>
        <mxCell id="Igezp09PnTVJK9evPPA8-312" style="edgeStyle=orthogonalEdgeStyle;rounded=1;orthogonalLoop=1;jettySize=auto;html=1;shadow=1;movable=1;cloneable=1;deletable=1;enumerate=0;comic=0;backgroundOutline=0;metaEdit=0;fixDash=0;snapToPoint=0;labelBackgroundColor=none;strokeColor=#A8201A;fontColor=default;" edge="1" parent="1" source="Igezp09PnTVJK9evPPA8-127" target="Igezp09PnTVJK9evPPA8-70">
          <mxGeometry relative="1" as="geometry">
            <Array as="points">
              <mxPoint x="609" y="312" />
              <mxPoint x="609" y="432" />
            </Array>
          </mxGeometry>
        </mxCell>
        <mxCell id="Igezp09PnTVJK9evPPA8-339" value="Supply" style="shape=table;startSize=30;container=1;collapsible=1;childLayout=tableLayout;fixedRows=1;rowLines=0;fontStyle=1;align=center;resizeLast=1;html=1;shadow=1;movable=1;cloneable=1;deletable=1;enumerate=0;comic=0;backgroundOutline=0;metaEdit=0;fixDash=0;snapToPoint=0;labelBackgroundColor=none;fillColor=#FAE5C7;strokeColor=#0F8B8D;fontColor=#143642;rounded=1;" vertex="1" parent="1">
          <mxGeometry x="858" y="571" width="190" height="180" as="geometry" />
        </mxCell>
        <mxCell id="Igezp09PnTVJK9evPPA8-340" value="" style="shape=tableRow;horizontal=0;startSize=0;swimlaneHead=0;swimlaneBody=0;fillColor=none;collapsible=0;dropTarget=0;points=[[0,0.5],[1,0.5]];portConstraint=eastwest;top=0;left=0;right=0;bottom=1;shadow=1;movable=1;cloneable=1;deletable=1;enumerate=0;comic=0;backgroundOutline=0;metaEdit=0;fixDash=0;snapToPoint=0;labelBackgroundColor=none;strokeColor=#0F8B8D;fontColor=#143642;rounded=1;" vertex="1" parent="Igezp09PnTVJK9evPPA8-339">
          <mxGeometry y="30" width="190" height="30" as="geometry" />
        </mxCell>
        <mxCell id="Igezp09PnTVJK9evPPA8-341" value="PK" style="shape=partialRectangle;connectable=0;fillColor=none;top=0;left=0;bottom=0;right=0;fontStyle=1;overflow=hidden;whiteSpace=wrap;html=1;shadow=1;movable=1;cloneable=1;deletable=1;enumerate=0;comic=0;backgroundOutline=0;metaEdit=0;fixDash=0;snapToPoint=0;labelBackgroundColor=none;strokeColor=#0F8B8D;fontColor=#143642;rounded=1;" vertex="1" parent="Igezp09PnTVJK9evPPA8-340">
          <mxGeometry width="30" height="30" as="geometry">
            <mxRectangle width="30" height="30" as="alternateBounds" />
          </mxGeometry>
        </mxCell>
        <mxCell id="Igezp09PnTVJK9evPPA8-342" value="ID" style="shape=partialRectangle;connectable=0;fillColor=none;top=0;left=0;bottom=0;right=0;align=left;spacingLeft=6;fontStyle=5;overflow=hidden;whiteSpace=wrap;html=1;shadow=1;movable=1;cloneable=1;deletable=1;enumerate=0;comic=0;backgroundOutline=0;metaEdit=0;fixDash=0;snapToPoint=0;labelBackgroundColor=none;strokeColor=#0F8B8D;fontColor=#143642;rounded=1;" vertex="1" parent="Igezp09PnTVJK9evPPA8-340">
          <mxGeometry x="30" width="160" height="30" as="geometry">
            <mxRectangle width="160" height="30" as="alternateBounds" />
          </mxGeometry>
        </mxCell>
        <mxCell id="Igezp09PnTVJK9evPPA8-349" value="" style="shape=tableRow;horizontal=0;startSize=0;swimlaneHead=0;swimlaneBody=0;fillColor=none;collapsible=0;dropTarget=0;points=[[0,0.5],[1,0.5]];portConstraint=eastwest;top=0;left=0;right=0;bottom=0;shadow=1;movable=1;cloneable=1;deletable=1;enumerate=0;comic=0;backgroundOutline=0;metaEdit=0;fixDash=0;snapToPoint=0;labelBackgroundColor=none;strokeColor=#0F8B8D;fontColor=#143642;rounded=1;" vertex="1" parent="Igezp09PnTVJK9evPPA8-339">
          <mxGeometry y="60" width="190" height="30" as="geometry" />
        </mxCell>
        <mxCell id="Igezp09PnTVJK9evPPA8-350" value="" style="shape=partialRectangle;connectable=0;fillColor=none;top=0;left=0;bottom=0;right=0;editable=1;overflow=hidden;whiteSpace=wrap;html=1;shadow=1;movable=1;cloneable=1;deletable=1;enumerate=0;comic=0;backgroundOutline=0;metaEdit=0;fixDash=0;snapToPoint=0;labelBackgroundColor=none;strokeColor=#0F8B8D;fontColor=#143642;rounded=1;" vertex="1" parent="Igezp09PnTVJK9evPPA8-349">
          <mxGeometry width="30" height="30" as="geometry">
            <mxRectangle width="30" height="30" as="alternateBounds" />
          </mxGeometry>
        </mxCell>
        <mxCell id="Igezp09PnTVJK9evPPA8-351" value="Delivery_date" style="shape=partialRectangle;connectable=0;fillColor=none;top=0;left=0;bottom=0;right=0;align=left;spacingLeft=6;overflow=hidden;whiteSpace=wrap;html=1;shadow=1;movable=1;cloneable=1;deletable=1;enumerate=0;comic=0;backgroundOutline=0;metaEdit=0;fixDash=0;snapToPoint=0;labelBackgroundColor=none;strokeColor=#0F8B8D;fontColor=#143642;rounded=1;" vertex="1" parent="Igezp09PnTVJK9evPPA8-349">
          <mxGeometry x="30" width="160" height="30" as="geometry">
            <mxRectangle width="160" height="30" as="alternateBounds" />
          </mxGeometry>
        </mxCell>
        <mxCell id="Igezp09PnTVJK9evPPA8-355" value="" style="shape=tableRow;horizontal=0;startSize=0;swimlaneHead=0;swimlaneBody=0;fillColor=none;collapsible=0;dropTarget=0;points=[[0,0.5],[1,0.5]];portConstraint=eastwest;top=0;left=0;right=0;bottom=0;shadow=1;movable=1;cloneable=1;deletable=1;enumerate=0;comic=0;backgroundOutline=0;metaEdit=0;fixDash=0;snapToPoint=0;labelBackgroundColor=none;strokeColor=#0F8B8D;fontColor=#143642;rounded=1;" vertex="1" parent="Igezp09PnTVJK9evPPA8-339">
          <mxGeometry y="90" width="190" height="30" as="geometry" />
        </mxCell>
        <mxCell id="Igezp09PnTVJK9evPPA8-356" value="" style="shape=partialRectangle;connectable=0;fillColor=none;top=0;left=0;bottom=0;right=0;editable=1;overflow=hidden;shadow=1;movable=1;cloneable=1;deletable=1;enumerate=0;comic=0;backgroundOutline=0;metaEdit=0;fixDash=0;snapToPoint=0;labelBackgroundColor=none;strokeColor=#0F8B8D;fontColor=#143642;rounded=1;" vertex="1" parent="Igezp09PnTVJK9evPPA8-355">
          <mxGeometry width="30" height="30" as="geometry">
            <mxRectangle width="30" height="30" as="alternateBounds" />
          </mxGeometry>
        </mxCell>
        <mxCell id="Igezp09PnTVJK9evPPA8-357" value="Quantity" style="shape=partialRectangle;connectable=0;fillColor=none;top=0;left=0;bottom=0;right=0;align=left;spacingLeft=6;overflow=hidden;shadow=1;movable=1;cloneable=1;deletable=1;enumerate=0;comic=0;backgroundOutline=0;metaEdit=0;fixDash=0;snapToPoint=0;labelBackgroundColor=none;strokeColor=#0F8B8D;fontColor=#143642;rounded=1;" vertex="1" parent="Igezp09PnTVJK9evPPA8-355">
          <mxGeometry x="30" width="160" height="30" as="geometry">
            <mxRectangle width="160" height="30" as="alternateBounds" />
          </mxGeometry>
        </mxCell>
        <mxCell id="Igezp09PnTVJK9evPPA8-359" value="" style="shape=tableRow;horizontal=0;startSize=0;swimlaneHead=0;swimlaneBody=0;fillColor=none;collapsible=0;dropTarget=0;points=[[0,0.5],[1,0.5]];portConstraint=eastwest;top=0;left=0;right=0;bottom=0;shadow=1;movable=1;cloneable=1;deletable=1;enumerate=0;comic=0;backgroundOutline=0;metaEdit=0;fixDash=0;snapToPoint=0;labelBackgroundColor=none;strokeColor=#0F8B8D;fontColor=#143642;rounded=1;" vertex="1" parent="Igezp09PnTVJK9evPPA8-339">
          <mxGeometry y="120" width="190" height="30" as="geometry" />
        </mxCell>
        <mxCell id="Igezp09PnTVJK9evPPA8-360" value="" style="shape=partialRectangle;connectable=0;fillColor=none;top=0;left=0;bottom=0;right=0;editable=1;overflow=hidden;shadow=1;movable=1;cloneable=1;deletable=1;enumerate=0;comic=0;backgroundOutline=0;metaEdit=0;fixDash=0;snapToPoint=0;labelBackgroundColor=none;strokeColor=#0F8B8D;fontColor=#143642;rounded=1;" vertex="1" parent="Igezp09PnTVJK9evPPA8-359">
          <mxGeometry width="30" height="30" as="geometry">
            <mxRectangle width="30" height="30" as="alternateBounds" />
          </mxGeometry>
        </mxCell>
        <mxCell id="Igezp09PnTVJK9evPPA8-361" value="Total_Price" style="shape=partialRectangle;connectable=0;fillColor=none;top=0;left=0;bottom=0;right=0;align=left;spacingLeft=6;overflow=hidden;shadow=1;movable=1;cloneable=1;deletable=1;enumerate=0;comic=0;backgroundOutline=0;metaEdit=0;fixDash=0;snapToPoint=0;labelBackgroundColor=none;strokeColor=#0F8B8D;fontColor=#143642;rounded=1;" vertex="1" parent="Igezp09PnTVJK9evPPA8-359">
          <mxGeometry x="30" width="160" height="30" as="geometry">
            <mxRectangle width="160" height="30" as="alternateBounds" />
          </mxGeometry>
        </mxCell>
        <mxCell id="Igezp09PnTVJK9evPPA8-363" value="" style="shape=tableRow;horizontal=0;startSize=0;swimlaneHead=0;swimlaneBody=0;fillColor=none;collapsible=0;dropTarget=0;points=[[0,0.5],[1,0.5]];portConstraint=eastwest;top=0;left=0;right=0;bottom=0;shadow=1;movable=1;cloneable=1;deletable=1;enumerate=0;comic=0;backgroundOutline=0;metaEdit=0;fixDash=0;snapToPoint=0;labelBackgroundColor=none;strokeColor=#0F8B8D;fontColor=#143642;rounded=1;" vertex="1" parent="Igezp09PnTVJK9evPPA8-339">
          <mxGeometry y="150" width="190" height="30" as="geometry" />
        </mxCell>
        <mxCell id="Igezp09PnTVJK9evPPA8-364" value="" style="shape=partialRectangle;connectable=0;fillColor=none;top=0;left=0;bottom=0;right=0;editable=1;overflow=hidden;shadow=1;movable=1;cloneable=1;deletable=1;enumerate=0;comic=0;backgroundOutline=0;metaEdit=0;fixDash=0;snapToPoint=0;labelBackgroundColor=none;strokeColor=#0F8B8D;fontColor=#143642;rounded=1;" vertex="1" parent="Igezp09PnTVJK9evPPA8-363">
          <mxGeometry width="30" height="30" as="geometry">
            <mxRectangle width="30" height="30" as="alternateBounds" />
          </mxGeometry>
        </mxCell>
        <mxCell id="Igezp09PnTVJK9evPPA8-365" value="Status" style="shape=partialRectangle;connectable=0;fillColor=none;top=0;left=0;bottom=0;right=0;align=left;spacingLeft=6;overflow=hidden;shadow=1;movable=1;cloneable=1;deletable=1;enumerate=0;comic=0;backgroundOutline=0;metaEdit=0;fixDash=0;snapToPoint=0;labelBackgroundColor=none;strokeColor=#0F8B8D;fontColor=#143642;rounded=1;" vertex="1" parent="Igezp09PnTVJK9evPPA8-363">
          <mxGeometry x="30" width="160" height="30" as="geometry">
            <mxRectangle width="160" height="30" as="alternateBounds" />
          </mxGeometry>
        </mxCell>
        <mxCell id="Igezp09PnTVJK9evPPA8-366" value="Payment" style="shape=table;startSize=30;container=1;collapsible=1;childLayout=tableLayout;fixedRows=1;rowLines=0;fontStyle=1;align=center;resizeLast=1;html=1;shadow=1;movable=1;cloneable=1;deletable=1;enumerate=0;comic=0;backgroundOutline=0;metaEdit=0;fixDash=0;snapToPoint=0;labelBackgroundColor=none;fillColor=#FAE5C7;strokeColor=#0F8B8D;fontColor=#143642;rounded=1;" vertex="1" parent="1">
          <mxGeometry x="123" y="517" width="180" height="180" as="geometry" />
        </mxCell>
        <mxCell id="Igezp09PnTVJK9evPPA8-367" value="" style="shape=tableRow;horizontal=0;startSize=0;swimlaneHead=0;swimlaneBody=0;fillColor=none;collapsible=0;dropTarget=0;points=[[0,0.5],[1,0.5]];portConstraint=eastwest;top=0;left=0;right=0;bottom=1;shadow=1;movable=1;cloneable=1;deletable=1;enumerate=0;comic=0;backgroundOutline=0;metaEdit=0;fixDash=0;snapToPoint=0;labelBackgroundColor=none;strokeColor=#0F8B8D;fontColor=#143642;rounded=1;" vertex="1" parent="Igezp09PnTVJK9evPPA8-366">
          <mxGeometry y="30" width="180" height="30" as="geometry" />
        </mxCell>
        <mxCell id="Igezp09PnTVJK9evPPA8-368" value="PK" style="shape=partialRectangle;connectable=0;fillColor=none;top=0;left=0;bottom=0;right=0;fontStyle=1;overflow=hidden;whiteSpace=wrap;html=1;shadow=1;movable=1;cloneable=1;deletable=1;enumerate=0;comic=0;backgroundOutline=0;metaEdit=0;fixDash=0;snapToPoint=0;labelBackgroundColor=none;strokeColor=#0F8B8D;fontColor=#143642;rounded=1;" vertex="1" parent="Igezp09PnTVJK9evPPA8-367">
          <mxGeometry width="30" height="30" as="geometry">
            <mxRectangle width="30" height="30" as="alternateBounds" />
          </mxGeometry>
        </mxCell>
        <mxCell id="Igezp09PnTVJK9evPPA8-369" value="ID" style="shape=partialRectangle;connectable=0;fillColor=none;top=0;left=0;bottom=0;right=0;align=left;spacingLeft=6;fontStyle=5;overflow=hidden;whiteSpace=wrap;html=1;shadow=1;movable=1;cloneable=1;deletable=1;enumerate=0;comic=0;backgroundOutline=0;metaEdit=0;fixDash=0;snapToPoint=0;labelBackgroundColor=none;strokeColor=#0F8B8D;fontColor=#143642;rounded=1;" vertex="1" parent="Igezp09PnTVJK9evPPA8-367">
          <mxGeometry x="30" width="150" height="30" as="geometry">
            <mxRectangle width="150" height="30" as="alternateBounds" />
          </mxGeometry>
        </mxCell>
        <mxCell id="Igezp09PnTVJK9evPPA8-373" value="" style="shape=tableRow;horizontal=0;startSize=0;swimlaneHead=0;swimlaneBody=0;fillColor=none;collapsible=0;dropTarget=0;points=[[0,0.5],[1,0.5]];portConstraint=eastwest;top=0;left=0;right=0;bottom=0;shadow=1;movable=1;cloneable=1;deletable=1;enumerate=0;comic=0;backgroundOutline=0;metaEdit=0;fixDash=0;snapToPoint=0;labelBackgroundColor=none;strokeColor=#0F8B8D;fontColor=#143642;rounded=1;" vertex="1" parent="Igezp09PnTVJK9evPPA8-366">
          <mxGeometry y="60" width="180" height="30" as="geometry" />
        </mxCell>
        <mxCell id="Igezp09PnTVJK9evPPA8-374" value="" style="shape=partialRectangle;connectable=0;fillColor=none;top=0;left=0;bottom=0;right=0;editable=1;overflow=hidden;whiteSpace=wrap;html=1;shadow=1;movable=1;cloneable=1;deletable=1;enumerate=0;comic=0;backgroundOutline=0;metaEdit=0;fixDash=0;snapToPoint=0;labelBackgroundColor=none;strokeColor=#0F8B8D;fontColor=#143642;rounded=1;" vertex="1" parent="Igezp09PnTVJK9evPPA8-373">
          <mxGeometry width="30" height="30" as="geometry">
            <mxRectangle width="30" height="30" as="alternateBounds" />
          </mxGeometry>
        </mxCell>
        <mxCell id="Igezp09PnTVJK9evPPA8-375" value="Payment_method" style="shape=partialRectangle;connectable=0;fillColor=none;top=0;left=0;bottom=0;right=0;align=left;spacingLeft=6;overflow=hidden;whiteSpace=wrap;html=1;shadow=1;movable=1;cloneable=1;deletable=1;enumerate=0;comic=0;backgroundOutline=0;metaEdit=0;fixDash=0;snapToPoint=0;labelBackgroundColor=none;strokeColor=#0F8B8D;fontColor=#143642;rounded=1;" vertex="1" parent="Igezp09PnTVJK9evPPA8-373">
          <mxGeometry x="30" width="150" height="30" as="geometry">
            <mxRectangle width="150" height="30" as="alternateBounds" />
          </mxGeometry>
        </mxCell>
        <mxCell id="Igezp09PnTVJK9evPPA8-376" value="" style="shape=tableRow;horizontal=0;startSize=0;swimlaneHead=0;swimlaneBody=0;fillColor=none;collapsible=0;dropTarget=0;points=[[0,0.5],[1,0.5]];portConstraint=eastwest;top=0;left=0;right=0;bottom=0;shadow=1;movable=1;cloneable=1;deletable=1;enumerate=0;comic=0;backgroundOutline=0;metaEdit=0;fixDash=0;snapToPoint=0;labelBackgroundColor=none;strokeColor=#0F8B8D;fontColor=#143642;rounded=1;" vertex="1" parent="Igezp09PnTVJK9evPPA8-366">
          <mxGeometry y="90" width="180" height="30" as="geometry" />
        </mxCell>
        <mxCell id="Igezp09PnTVJK9evPPA8-377" value="" style="shape=partialRectangle;connectable=0;fillColor=none;top=0;left=0;bottom=0;right=0;editable=1;overflow=hidden;whiteSpace=wrap;html=1;shadow=1;movable=1;cloneable=1;deletable=1;enumerate=0;comic=0;backgroundOutline=0;metaEdit=0;fixDash=0;snapToPoint=0;labelBackgroundColor=none;strokeColor=#0F8B8D;fontColor=#143642;rounded=1;" vertex="1" parent="Igezp09PnTVJK9evPPA8-376">
          <mxGeometry width="30" height="30" as="geometry">
            <mxRectangle width="30" height="30" as="alternateBounds" />
          </mxGeometry>
        </mxCell>
        <mxCell id="Igezp09PnTVJK9evPPA8-378" value="Payment_date" style="shape=partialRectangle;connectable=0;fillColor=none;top=0;left=0;bottom=0;right=0;align=left;spacingLeft=6;overflow=hidden;whiteSpace=wrap;html=1;shadow=1;movable=1;cloneable=1;deletable=1;enumerate=0;comic=0;backgroundOutline=0;metaEdit=0;fixDash=0;snapToPoint=0;labelBackgroundColor=none;strokeColor=#0F8B8D;fontColor=#143642;rounded=1;" vertex="1" parent="Igezp09PnTVJK9evPPA8-376">
          <mxGeometry x="30" width="150" height="30" as="geometry">
            <mxRectangle width="150" height="30" as="alternateBounds" />
          </mxGeometry>
        </mxCell>
        <mxCell id="Igezp09PnTVJK9evPPA8-380" value="" style="shape=tableRow;horizontal=0;startSize=0;swimlaneHead=0;swimlaneBody=0;fillColor=none;collapsible=0;dropTarget=0;points=[[0,0.5],[1,0.5]];portConstraint=eastwest;top=0;left=0;right=0;bottom=0;shadow=1;movable=1;cloneable=1;deletable=1;enumerate=0;comic=0;backgroundOutline=0;metaEdit=0;fixDash=0;snapToPoint=0;labelBackgroundColor=none;strokeColor=#0F8B8D;fontColor=#143642;rounded=1;" vertex="1" parent="Igezp09PnTVJK9evPPA8-366">
          <mxGeometry y="120" width="180" height="30" as="geometry" />
        </mxCell>
        <mxCell id="Igezp09PnTVJK9evPPA8-381" value="" style="shape=partialRectangle;connectable=0;fillColor=none;top=0;left=0;bottom=0;right=0;editable=1;overflow=hidden;shadow=1;movable=1;cloneable=1;deletable=1;enumerate=0;comic=0;backgroundOutline=0;metaEdit=0;fixDash=0;snapToPoint=0;labelBackgroundColor=none;strokeColor=#0F8B8D;fontColor=#143642;rounded=1;" vertex="1" parent="Igezp09PnTVJK9evPPA8-380">
          <mxGeometry width="30" height="30" as="geometry">
            <mxRectangle width="30" height="30" as="alternateBounds" />
          </mxGeometry>
        </mxCell>
        <mxCell id="Igezp09PnTVJK9evPPA8-382" value="Amount" style="shape=partialRectangle;connectable=0;fillColor=none;top=0;left=0;bottom=0;right=0;align=left;spacingLeft=6;overflow=hidden;shadow=1;movable=1;cloneable=1;deletable=1;enumerate=0;comic=0;backgroundOutline=0;metaEdit=0;fixDash=0;snapToPoint=0;labelBackgroundColor=none;strokeColor=#0F8B8D;fontColor=#143642;rounded=1;" vertex="1" parent="Igezp09PnTVJK9evPPA8-380">
          <mxGeometry x="30" width="150" height="30" as="geometry">
            <mxRectangle width="150" height="30" as="alternateBounds" />
          </mxGeometry>
        </mxCell>
        <mxCell id="Igezp09PnTVJK9evPPA8-384" value="" style="shape=tableRow;horizontal=0;startSize=0;swimlaneHead=0;swimlaneBody=0;fillColor=none;collapsible=0;dropTarget=0;points=[[0,0.5],[1,0.5]];portConstraint=eastwest;top=0;left=0;right=0;bottom=0;shadow=1;movable=1;cloneable=1;deletable=1;enumerate=0;comic=0;backgroundOutline=0;metaEdit=0;fixDash=0;snapToPoint=0;labelBackgroundColor=none;strokeColor=#0F8B8D;fontColor=#143642;rounded=1;" vertex="1" parent="Igezp09PnTVJK9evPPA8-366">
          <mxGeometry y="150" width="180" height="30" as="geometry" />
        </mxCell>
        <mxCell id="Igezp09PnTVJK9evPPA8-385" value="" style="shape=partialRectangle;connectable=0;fillColor=none;top=0;left=0;bottom=0;right=0;editable=1;overflow=hidden;shadow=1;movable=1;cloneable=1;deletable=1;enumerate=0;comic=0;backgroundOutline=0;metaEdit=0;fixDash=0;snapToPoint=0;labelBackgroundColor=none;strokeColor=#0F8B8D;fontColor=#143642;rounded=1;" vertex="1" parent="Igezp09PnTVJK9evPPA8-384">
          <mxGeometry width="30" height="30" as="geometry">
            <mxRectangle width="30" height="30" as="alternateBounds" />
          </mxGeometry>
        </mxCell>
        <mxCell id="Igezp09PnTVJK9evPPA8-386" value="Payment_status" style="shape=partialRectangle;connectable=0;fillColor=none;top=0;left=0;bottom=0;right=0;align=left;spacingLeft=6;overflow=hidden;shadow=1;movable=1;cloneable=1;deletable=1;enumerate=0;comic=0;backgroundOutline=0;metaEdit=0;fixDash=0;snapToPoint=0;labelBackgroundColor=none;strokeColor=#0F8B8D;fontColor=#143642;rounded=1;" vertex="1" parent="Igezp09PnTVJK9evPPA8-384">
          <mxGeometry x="30" width="150" height="30" as="geometry">
            <mxRectangle width="150" height="30" as="alternateBounds" />
          </mxGeometry>
        </mxCell>
        <mxCell id="Igezp09PnTVJK9evPPA8-387" style="edgeStyle=orthogonalEdgeStyle;rounded=1;orthogonalLoop=1;jettySize=auto;html=1;entryX=1;entryY=0.5;entryDx=0;entryDy=0;shadow=1;movable=1;cloneable=1;deletable=1;enumerate=0;comic=0;backgroundOutline=0;metaEdit=0;fixDash=0;snapToPoint=0;labelBackgroundColor=none;strokeColor=#A8201A;fontColor=default;" edge="1" parent="1" source="Igezp09PnTVJK9evPPA8-187" target="Igezp09PnTVJK9evPPA8-367">
          <mxGeometry relative="1" as="geometry">
            <Array as="points">
              <mxPoint x="323" y="420" />
              <mxPoint x="323" y="562" />
            </Array>
          </mxGeometry>
        </mxCell>
        <mxCell id="Igezp09PnTVJK9evPPA8-388" value="Delivery" style="shape=table;startSize=30;container=1;collapsible=1;childLayout=tableLayout;fixedRows=1;rowLines=0;fontStyle=1;align=center;resizeLast=1;html=1;shadow=1;movable=1;cloneable=1;deletable=1;enumerate=0;comic=0;backgroundOutline=0;metaEdit=0;fixDash=0;snapToPoint=0;labelBackgroundColor=none;fillColor=#FAE5C7;strokeColor=#0F8B8D;fontColor=#143642;rounded=1;" vertex="1" parent="1">
          <mxGeometry x="368" y="549" width="180" height="210" as="geometry" />
        </mxCell>
        <mxCell id="Igezp09PnTVJK9evPPA8-389" value="" style="shape=tableRow;horizontal=0;startSize=0;swimlaneHead=0;swimlaneBody=0;fillColor=none;collapsible=0;dropTarget=0;points=[[0,0.5],[1,0.5]];portConstraint=eastwest;top=0;left=0;right=0;bottom=1;shadow=1;movable=1;cloneable=1;deletable=1;enumerate=0;comic=0;backgroundOutline=0;metaEdit=0;fixDash=0;snapToPoint=0;labelBackgroundColor=none;strokeColor=#0F8B8D;fontColor=#143642;rounded=1;" vertex="1" parent="Igezp09PnTVJK9evPPA8-388">
          <mxGeometry y="30" width="180" height="30" as="geometry" />
        </mxCell>
        <mxCell id="Igezp09PnTVJK9evPPA8-390" value="PK" style="shape=partialRectangle;connectable=0;fillColor=none;top=0;left=0;bottom=0;right=0;fontStyle=1;overflow=hidden;whiteSpace=wrap;html=1;shadow=1;movable=1;cloneable=1;deletable=1;enumerate=0;comic=0;backgroundOutline=0;metaEdit=0;fixDash=0;snapToPoint=0;labelBackgroundColor=none;strokeColor=#0F8B8D;fontColor=#143642;rounded=1;" vertex="1" parent="Igezp09PnTVJK9evPPA8-389">
          <mxGeometry width="30" height="30" as="geometry">
            <mxRectangle width="30" height="30" as="alternateBounds" />
          </mxGeometry>
        </mxCell>
        <mxCell id="Igezp09PnTVJK9evPPA8-391" value="ID" style="shape=partialRectangle;connectable=0;fillColor=none;top=0;left=0;bottom=0;right=0;align=left;spacingLeft=6;fontStyle=5;overflow=hidden;whiteSpace=wrap;html=1;shadow=1;movable=1;cloneable=1;deletable=1;enumerate=0;comic=0;backgroundOutline=0;metaEdit=0;fixDash=0;snapToPoint=0;labelBackgroundColor=none;strokeColor=#0F8B8D;fontColor=#143642;rounded=1;" vertex="1" parent="Igezp09PnTVJK9evPPA8-389">
          <mxGeometry x="30" width="150" height="30" as="geometry">
            <mxRectangle width="150" height="30" as="alternateBounds" />
          </mxGeometry>
        </mxCell>
        <mxCell id="Igezp09PnTVJK9evPPA8-392" value="" style="shape=tableRow;horizontal=0;startSize=0;swimlaneHead=0;swimlaneBody=0;fillColor=none;collapsible=0;dropTarget=0;points=[[0,0.5],[1,0.5]];portConstraint=eastwest;top=0;left=0;right=0;bottom=0;shadow=1;movable=1;cloneable=1;deletable=1;enumerate=0;comic=0;backgroundOutline=0;metaEdit=0;fixDash=0;snapToPoint=0;labelBackgroundColor=none;strokeColor=#0F8B8D;fontColor=#143642;rounded=1;" vertex="1" parent="Igezp09PnTVJK9evPPA8-388">
          <mxGeometry y="60" width="180" height="30" as="geometry" />
        </mxCell>
        <mxCell id="Igezp09PnTVJK9evPPA8-393" value="" style="shape=partialRectangle;connectable=0;fillColor=none;top=0;left=0;bottom=0;right=0;editable=1;overflow=hidden;whiteSpace=wrap;html=1;shadow=1;movable=1;cloneable=1;deletable=1;enumerate=0;comic=0;backgroundOutline=0;metaEdit=0;fixDash=0;snapToPoint=0;labelBackgroundColor=none;strokeColor=#0F8B8D;fontColor=#143642;rounded=1;" vertex="1" parent="Igezp09PnTVJK9evPPA8-392">
          <mxGeometry width="30" height="30" as="geometry">
            <mxRectangle width="30" height="30" as="alternateBounds" />
          </mxGeometry>
        </mxCell>
        <mxCell id="Igezp09PnTVJK9evPPA8-394" value="Shipping_address" style="shape=partialRectangle;connectable=0;fillColor=none;top=0;left=0;bottom=0;right=0;align=left;spacingLeft=6;overflow=hidden;whiteSpace=wrap;html=1;shadow=1;movable=1;cloneable=1;deletable=1;enumerate=0;comic=0;backgroundOutline=0;metaEdit=0;fixDash=0;snapToPoint=0;labelBackgroundColor=none;strokeColor=#0F8B8D;fontColor=#143642;rounded=1;" vertex="1" parent="Igezp09PnTVJK9evPPA8-392">
          <mxGeometry x="30" width="150" height="30" as="geometry">
            <mxRectangle width="150" height="30" as="alternateBounds" />
          </mxGeometry>
        </mxCell>
        <mxCell id="Igezp09PnTVJK9evPPA8-395" value="" style="shape=tableRow;horizontal=0;startSize=0;swimlaneHead=0;swimlaneBody=0;fillColor=none;collapsible=0;dropTarget=0;points=[[0,0.5],[1,0.5]];portConstraint=eastwest;top=0;left=0;right=0;bottom=0;shadow=1;movable=1;cloneable=1;deletable=1;enumerate=0;comic=0;backgroundOutline=0;metaEdit=0;fixDash=0;snapToPoint=0;labelBackgroundColor=none;strokeColor=#0F8B8D;fontColor=#143642;rounded=1;" vertex="1" parent="Igezp09PnTVJK9evPPA8-388">
          <mxGeometry y="90" width="180" height="30" as="geometry" />
        </mxCell>
        <mxCell id="Igezp09PnTVJK9evPPA8-396" value="" style="shape=partialRectangle;connectable=0;fillColor=none;top=0;left=0;bottom=0;right=0;editable=1;overflow=hidden;whiteSpace=wrap;html=1;shadow=1;movable=1;cloneable=1;deletable=1;enumerate=0;comic=0;backgroundOutline=0;metaEdit=0;fixDash=0;snapToPoint=0;labelBackgroundColor=none;strokeColor=#0F8B8D;fontColor=#143642;rounded=1;" vertex="1" parent="Igezp09PnTVJK9evPPA8-395">
          <mxGeometry width="30" height="30" as="geometry">
            <mxRectangle width="30" height="30" as="alternateBounds" />
          </mxGeometry>
        </mxCell>
        <mxCell id="Igezp09PnTVJK9evPPA8-397" value="Shipping_method" style="shape=partialRectangle;connectable=0;fillColor=none;top=0;left=0;bottom=0;right=0;align=left;spacingLeft=6;overflow=hidden;whiteSpace=wrap;html=1;shadow=1;movable=1;cloneable=1;deletable=1;enumerate=0;comic=0;backgroundOutline=0;metaEdit=0;fixDash=0;snapToPoint=0;labelBackgroundColor=none;strokeColor=#0F8B8D;fontColor=#143642;rounded=1;" vertex="1" parent="Igezp09PnTVJK9evPPA8-395">
          <mxGeometry x="30" width="150" height="30" as="geometry">
            <mxRectangle width="150" height="30" as="alternateBounds" />
          </mxGeometry>
        </mxCell>
        <mxCell id="Igezp09PnTVJK9evPPA8-398" value="" style="shape=tableRow;horizontal=0;startSize=0;swimlaneHead=0;swimlaneBody=0;fillColor=none;collapsible=0;dropTarget=0;points=[[0,0.5],[1,0.5]];portConstraint=eastwest;top=0;left=0;right=0;bottom=0;shadow=1;movable=1;cloneable=1;deletable=1;enumerate=0;comic=0;backgroundOutline=0;metaEdit=0;fixDash=0;snapToPoint=0;labelBackgroundColor=none;strokeColor=#0F8B8D;fontColor=#143642;rounded=1;" vertex="1" parent="Igezp09PnTVJK9evPPA8-388">
          <mxGeometry y="120" width="180" height="30" as="geometry" />
        </mxCell>
        <mxCell id="Igezp09PnTVJK9evPPA8-399" value="" style="shape=partialRectangle;connectable=0;fillColor=none;top=0;left=0;bottom=0;right=0;editable=1;overflow=hidden;whiteSpace=wrap;html=1;shadow=1;movable=1;cloneable=1;deletable=1;enumerate=0;comic=0;backgroundOutline=0;metaEdit=0;fixDash=0;snapToPoint=0;labelBackgroundColor=none;strokeColor=#0F8B8D;fontColor=#143642;rounded=1;" vertex="1" parent="Igezp09PnTVJK9evPPA8-398">
          <mxGeometry width="30" height="30" as="geometry">
            <mxRectangle width="30" height="30" as="alternateBounds" />
          </mxGeometry>
        </mxCell>
        <mxCell id="Igezp09PnTVJK9evPPA8-400" value="Estimated_delivery_date" style="shape=partialRectangle;connectable=0;fillColor=none;top=0;left=0;bottom=0;right=0;align=left;spacingLeft=6;overflow=hidden;whiteSpace=wrap;html=1;shadow=1;movable=1;cloneable=1;deletable=1;enumerate=0;comic=0;backgroundOutline=0;metaEdit=0;fixDash=0;snapToPoint=0;labelBackgroundColor=none;strokeColor=#0F8B8D;fontColor=#143642;rounded=1;" vertex="1" parent="Igezp09PnTVJK9evPPA8-398">
          <mxGeometry x="30" width="150" height="30" as="geometry">
            <mxRectangle width="150" height="30" as="alternateBounds" />
          </mxGeometry>
        </mxCell>
        <mxCell id="Igezp09PnTVJK9evPPA8-402" value="" style="shape=tableRow;horizontal=0;startSize=0;swimlaneHead=0;swimlaneBody=0;fillColor=none;collapsible=0;dropTarget=0;points=[[0,0.5],[1,0.5]];portConstraint=eastwest;top=0;left=0;right=0;bottom=0;shadow=1;movable=1;cloneable=1;deletable=1;enumerate=0;comic=0;backgroundOutline=0;metaEdit=0;fixDash=0;snapToPoint=0;labelBackgroundColor=none;strokeColor=#0F8B8D;fontColor=#143642;rounded=1;" vertex="1" parent="Igezp09PnTVJK9evPPA8-388">
          <mxGeometry y="150" width="180" height="30" as="geometry" />
        </mxCell>
        <mxCell id="Igezp09PnTVJK9evPPA8-403" value="" style="shape=partialRectangle;connectable=0;fillColor=none;top=0;left=0;bottom=0;right=0;editable=1;overflow=hidden;shadow=1;movable=1;cloneable=1;deletable=1;enumerate=0;comic=0;backgroundOutline=0;metaEdit=0;fixDash=0;snapToPoint=0;labelBackgroundColor=none;strokeColor=#0F8B8D;fontColor=#143642;rounded=1;" vertex="1" parent="Igezp09PnTVJK9evPPA8-402">
          <mxGeometry width="30" height="30" as="geometry">
            <mxRectangle width="30" height="30" as="alternateBounds" />
          </mxGeometry>
        </mxCell>
        <mxCell id="Igezp09PnTVJK9evPPA8-404" value="Actual_delivery_date" style="shape=partialRectangle;connectable=0;fillColor=none;top=0;left=0;bottom=0;right=0;align=left;spacingLeft=6;overflow=hidden;shadow=1;movable=1;cloneable=1;deletable=1;enumerate=0;comic=0;backgroundOutline=0;metaEdit=0;fixDash=0;snapToPoint=0;labelBackgroundColor=none;strokeColor=#0F8B8D;fontColor=#143642;rounded=1;" vertex="1" parent="Igezp09PnTVJK9evPPA8-402">
          <mxGeometry x="30" width="150" height="30" as="geometry">
            <mxRectangle width="150" height="30" as="alternateBounds" />
          </mxGeometry>
        </mxCell>
        <mxCell id="Igezp09PnTVJK9evPPA8-406" value="" style="shape=tableRow;horizontal=0;startSize=0;swimlaneHead=0;swimlaneBody=0;fillColor=none;collapsible=0;dropTarget=0;points=[[0,0.5],[1,0.5]];portConstraint=eastwest;top=0;left=0;right=0;bottom=0;shadow=1;movable=1;cloneable=1;deletable=1;enumerate=0;comic=0;backgroundOutline=0;metaEdit=0;fixDash=0;snapToPoint=0;labelBackgroundColor=none;strokeColor=#0F8B8D;fontColor=#143642;rounded=1;" vertex="1" parent="Igezp09PnTVJK9evPPA8-388">
          <mxGeometry y="180" width="180" height="30" as="geometry" />
        </mxCell>
        <mxCell id="Igezp09PnTVJK9evPPA8-407" value="" style="shape=partialRectangle;connectable=0;fillColor=none;top=0;left=0;bottom=0;right=0;editable=1;overflow=hidden;shadow=1;movable=1;cloneable=1;deletable=1;enumerate=0;comic=0;backgroundOutline=0;metaEdit=0;fixDash=0;snapToPoint=0;labelBackgroundColor=none;strokeColor=#0F8B8D;fontColor=#143642;rounded=1;" vertex="1" parent="Igezp09PnTVJK9evPPA8-406">
          <mxGeometry width="30" height="30" as="geometry">
            <mxRectangle width="30" height="30" as="alternateBounds" />
          </mxGeometry>
        </mxCell>
        <mxCell id="Igezp09PnTVJK9evPPA8-408" value="Delivery_status" style="shape=partialRectangle;connectable=0;fillColor=none;top=0;left=0;bottom=0;right=0;align=left;spacingLeft=6;overflow=hidden;shadow=1;movable=1;cloneable=1;deletable=1;enumerate=0;comic=0;backgroundOutline=0;metaEdit=0;fixDash=0;snapToPoint=0;labelBackgroundColor=none;strokeColor=#0F8B8D;fontColor=#143642;rounded=1;" vertex="1" parent="Igezp09PnTVJK9evPPA8-406">
          <mxGeometry x="30" width="150" height="30" as="geometry">
            <mxRectangle width="150" height="30" as="alternateBounds" />
          </mxGeometry>
        </mxCell>
        <mxCell id="Igezp09PnTVJK9evPPA8-414" style="edgeStyle=orthogonalEdgeStyle;rounded=1;orthogonalLoop=1;jettySize=auto;html=1;shadow=1;movable=1;cloneable=1;deletable=1;enumerate=0;comic=0;backgroundOutline=0;metaEdit=0;fixDash=0;snapToPoint=0;labelBackgroundColor=none;strokeColor=#A8201A;fontColor=default;" edge="1" parent="1" source="Igezp09PnTVJK9evPPA8-389" target="Igezp09PnTVJK9evPPA8-410">
          <mxGeometry relative="1" as="geometry">
            <Array as="points">
              <mxPoint x="568" y="596" />
              <mxPoint x="568" y="451" />
            </Array>
          </mxGeometry>
        </mxCell>
        <mxCell id="Igezp09PnTVJK9evPPA8-313" value="Manufacturer_supplier" style="shape=table;startSize=30;container=1;collapsible=1;childLayout=tableLayout;fixedRows=1;rowLines=0;fontStyle=1;align=center;resizeLast=1;html=1;shadow=1;movable=1;cloneable=1;deletable=1;enumerate=0;comic=0;backgroundOutline=0;metaEdit=0;fixDash=0;snapToPoint=0;labelBackgroundColor=none;fillColor=#FAE5C7;strokeColor=#0F8B8D;fontColor=#143642;rounded=1;" vertex="1" parent="1">
          <mxGeometry x="863" y="397" width="180" height="150" as="geometry" />
        </mxCell>
        <mxCell id="Igezp09PnTVJK9evPPA8-314" value="" style="shape=tableRow;horizontal=0;startSize=0;swimlaneHead=0;swimlaneBody=0;fillColor=none;collapsible=0;dropTarget=0;points=[[0,0.5],[1,0.5]];portConstraint=eastwest;top=0;left=0;right=0;bottom=1;shadow=1;movable=1;cloneable=1;deletable=1;enumerate=0;comic=0;backgroundOutline=0;metaEdit=0;fixDash=0;snapToPoint=0;labelBackgroundColor=none;strokeColor=#0F8B8D;fontColor=#143642;rounded=1;" vertex="1" parent="Igezp09PnTVJK9evPPA8-313">
          <mxGeometry y="30" width="180" height="30" as="geometry" />
        </mxCell>
        <mxCell id="Igezp09PnTVJK9evPPA8-315" value="PK" style="shape=partialRectangle;connectable=0;fillColor=none;top=0;left=0;bottom=0;right=0;fontStyle=1;overflow=hidden;whiteSpace=wrap;html=1;shadow=1;movable=1;cloneable=1;deletable=1;enumerate=0;comic=0;backgroundOutline=0;metaEdit=0;fixDash=0;snapToPoint=0;labelBackgroundColor=none;strokeColor=#0F8B8D;fontColor=#143642;rounded=1;" vertex="1" parent="Igezp09PnTVJK9evPPA8-314">
          <mxGeometry width="30" height="30" as="geometry">
            <mxRectangle width="30" height="30" as="alternateBounds" />
          </mxGeometry>
        </mxCell>
        <mxCell id="Igezp09PnTVJK9evPPA8-316" value="ID" style="shape=partialRectangle;connectable=0;fillColor=none;top=0;left=0;bottom=0;right=0;align=left;spacingLeft=6;fontStyle=5;overflow=hidden;whiteSpace=wrap;html=1;shadow=1;movable=1;cloneable=1;deletable=1;enumerate=0;comic=0;backgroundOutline=0;metaEdit=0;fixDash=0;snapToPoint=0;labelBackgroundColor=none;strokeColor=#0F8B8D;fontColor=#143642;rounded=1;" vertex="1" parent="Igezp09PnTVJK9evPPA8-314">
          <mxGeometry x="30" width="150" height="30" as="geometry">
            <mxRectangle width="150" height="30" as="alternateBounds" />
          </mxGeometry>
        </mxCell>
        <mxCell id="Igezp09PnTVJK9evPPA8-317" value="" style="shape=tableRow;horizontal=0;startSize=0;swimlaneHead=0;swimlaneBody=0;fillColor=none;collapsible=0;dropTarget=0;points=[[0,0.5],[1,0.5]];portConstraint=eastwest;top=0;left=0;right=0;bottom=0;shadow=1;movable=1;cloneable=1;deletable=1;enumerate=0;comic=0;backgroundOutline=0;metaEdit=0;fixDash=0;snapToPoint=0;labelBackgroundColor=none;strokeColor=#0F8B8D;fontColor=#143642;rounded=1;" vertex="1" parent="Igezp09PnTVJK9evPPA8-313">
          <mxGeometry y="60" width="180" height="30" as="geometry" />
        </mxCell>
        <mxCell id="Igezp09PnTVJK9evPPA8-318" value="" style="shape=partialRectangle;connectable=0;fillColor=none;top=0;left=0;bottom=0;right=0;editable=1;overflow=hidden;whiteSpace=wrap;html=1;shadow=1;movable=1;cloneable=1;deletable=1;enumerate=0;comic=0;backgroundOutline=0;metaEdit=0;fixDash=0;snapToPoint=0;labelBackgroundColor=none;strokeColor=#0F8B8D;fontColor=#143642;rounded=1;" vertex="1" parent="Igezp09PnTVJK9evPPA8-317">
          <mxGeometry width="30" height="30" as="geometry">
            <mxRectangle width="30" height="30" as="alternateBounds" />
          </mxGeometry>
        </mxCell>
        <mxCell id="Igezp09PnTVJK9evPPA8-319" value="Name" style="shape=partialRectangle;connectable=0;fillColor=none;top=0;left=0;bottom=0;right=0;align=left;spacingLeft=6;overflow=hidden;whiteSpace=wrap;html=1;shadow=1;movable=1;cloneable=1;deletable=1;enumerate=0;comic=0;backgroundOutline=0;metaEdit=0;fixDash=0;snapToPoint=0;labelBackgroundColor=none;strokeColor=#0F8B8D;fontColor=#143642;rounded=1;" vertex="1" parent="Igezp09PnTVJK9evPPA8-317">
          <mxGeometry x="30" width="150" height="30" as="geometry">
            <mxRectangle width="150" height="30" as="alternateBounds" />
          </mxGeometry>
        </mxCell>
        <mxCell id="Igezp09PnTVJK9evPPA8-320" value="" style="shape=tableRow;horizontal=0;startSize=0;swimlaneHead=0;swimlaneBody=0;fillColor=none;collapsible=0;dropTarget=0;points=[[0,0.5],[1,0.5]];portConstraint=eastwest;top=0;left=0;right=0;bottom=0;shadow=1;movable=1;cloneable=1;deletable=1;enumerate=0;comic=0;backgroundOutline=0;metaEdit=0;fixDash=0;snapToPoint=0;labelBackgroundColor=none;strokeColor=#0F8B8D;fontColor=#143642;rounded=1;" vertex="1" parent="Igezp09PnTVJK9evPPA8-313">
          <mxGeometry y="90" width="180" height="30" as="geometry" />
        </mxCell>
        <mxCell id="Igezp09PnTVJK9evPPA8-321" value="" style="shape=partialRectangle;connectable=0;fillColor=none;top=0;left=0;bottom=0;right=0;editable=1;overflow=hidden;whiteSpace=wrap;html=1;shadow=1;movable=1;cloneable=1;deletable=1;enumerate=0;comic=0;backgroundOutline=0;metaEdit=0;fixDash=0;snapToPoint=0;labelBackgroundColor=none;strokeColor=#0F8B8D;fontColor=#143642;rounded=1;" vertex="1" parent="Igezp09PnTVJK9evPPA8-320">
          <mxGeometry width="30" height="30" as="geometry">
            <mxRectangle width="30" height="30" as="alternateBounds" />
          </mxGeometry>
        </mxCell>
        <mxCell id="Igezp09PnTVJK9evPPA8-322" value="Contact_Information" style="shape=partialRectangle;connectable=0;fillColor=none;top=0;left=0;bottom=0;right=0;align=left;spacingLeft=6;overflow=hidden;whiteSpace=wrap;html=1;shadow=1;movable=1;cloneable=1;deletable=1;enumerate=0;comic=0;backgroundOutline=0;metaEdit=0;fixDash=0;snapToPoint=0;labelBackgroundColor=none;strokeColor=#0F8B8D;fontColor=#143642;rounded=1;" vertex="1" parent="Igezp09PnTVJK9evPPA8-320">
          <mxGeometry x="30" width="150" height="30" as="geometry">
            <mxRectangle width="150" height="30" as="alternateBounds" />
          </mxGeometry>
        </mxCell>
        <mxCell id="Igezp09PnTVJK9evPPA8-440" value="" style="shape=tableRow;horizontal=0;startSize=0;swimlaneHead=0;swimlaneBody=0;fillColor=none;collapsible=0;dropTarget=0;points=[[0,0.5],[1,0.5]];portConstraint=eastwest;top=0;left=0;right=0;bottom=0;strokeColor=#0F8B8D;fontColor=#143642;" vertex="1" parent="Igezp09PnTVJK9evPPA8-313">
          <mxGeometry y="120" width="180" height="30" as="geometry" />
        </mxCell>
        <mxCell id="Igezp09PnTVJK9evPPA8-441" value="" style="shape=partialRectangle;connectable=0;fillColor=none;top=0;left=0;bottom=0;right=0;editable=1;overflow=hidden;strokeColor=#0F8B8D;fontColor=#143642;" vertex="1" parent="Igezp09PnTVJK9evPPA8-440">
          <mxGeometry width="30" height="30" as="geometry">
            <mxRectangle width="30" height="30" as="alternateBounds" />
          </mxGeometry>
        </mxCell>
        <mxCell id="Igezp09PnTVJK9evPPA8-442" value="Supply_ID" style="shape=partialRectangle;connectable=0;fillColor=none;top=0;left=0;bottom=0;right=0;align=left;spacingLeft=6;overflow=hidden;strokeColor=#0F8B8D;fontColor=#143642;" vertex="1" parent="Igezp09PnTVJK9evPPA8-440">
          <mxGeometry x="30" width="150" height="30" as="geometry">
            <mxRectangle width="150" height="30" as="alternateBounds" />
          </mxGeometry>
        </mxCell>
        <mxCell id="Igezp09PnTVJK9evPPA8-433" style="edgeStyle=orthogonalEdgeStyle;rounded=1;orthogonalLoop=1;jettySize=auto;html=1;labelBackgroundColor=none;strokeColor=#A8201A;fontColor=default;" edge="1" parent="1" source="Igezp09PnTVJK9evPPA8-430" target="Igezp09PnTVJK9evPPA8-287">
          <mxGeometry relative="1" as="geometry">
            <Array as="points">
              <mxPoint x="568" y="193" />
              <mxPoint x="568" y="363" />
            </Array>
          </mxGeometry>
        </mxCell>
        <mxCell id="Igezp09PnTVJK9evPPA8-438" style="edgeStyle=orthogonalEdgeStyle;rounded=1;orthogonalLoop=1;jettySize=auto;html=1;strokeColor=#A8201A;fontColor=#143642;fillColor=#FAE5C7;" edge="1" parent="1" source="Igezp09PnTVJK9evPPA8-435" target="Igezp09PnTVJK9evPPA8-314">
          <mxGeometry relative="1" as="geometry">
            <Array as="points">
              <mxPoint x="843" y="643" />
              <mxPoint x="843" y="442" />
            </Array>
          </mxGeometry>
        </mxCell>
        <mxCell id="Igezp09PnTVJK9evPPA8-443" style="edgeStyle=orthogonalEdgeStyle;rounded=1;orthogonalLoop=1;jettySize=auto;html=1;strokeColor=#A8201A;fontColor=#143642;fillColor=#FAE5C7;" edge="1" parent="1" source="Igezp09PnTVJK9evPPA8-440" target="Igezp09PnTVJK9evPPA8-340">
          <mxGeometry relative="1" as="geometry">
            <Array as="points">
              <mxPoint x="1068" y="532" />
              <mxPoint x="1068" y="616" />
            </Array>
          </mxGeometry>
        </mxCell>
      </root>
    </mxGraphModel>
  </diagram>
</mxfile>
